<svg width="785" height="234" viewBox="0 0 785 234" fill="none" xmlns="http://www.w3.org/2000/svg">
<ellipse cx="148" cy="122.177" rx="148" ry="111.823" fill="#040059"/>
<ellipse cx="148" cy="111.823" rx="148" ry="111.823" fill="#00BCFF"/>
<path d="M230.463 173.05V178.401H68.3114V173.061C68.3114 171.687 68.8563 170.369 69.8264 169.396C70.7966 168.423 72.1128 167.876 73.4862 167.873H78.6937C78.6742 167.699 78.6633 167.524 78.661 167.35V162.521C78.6639 161.149 79.2101 159.834 80.1799 158.864C81.1497 157.894 82.4643 157.347 83.8359 157.344H91.6036V90.3703H78.661C77.2703 90.3736 75.9211 89.8962 74.8416 89.019C73.7621 88.1418 73.0186 86.9185 72.7368 85.556C72.4549 84.1936 72.652 82.7755 73.2948 81.5417C73.9375 80.3079 74.9865 79.334 76.2643 78.7847L146.991 48.126C147.747 47.7985 148.563 47.6295 149.387 47.6295C150.212 47.6295 151.027 47.7985 151.784 48.126L222.51 78.7739C223.788 79.3231 224.837 80.297 225.48 81.5308C226.123 82.7646 226.32 84.1827 226.038 85.5451C225.756 86.9076 225.012 88.1309 223.933 89.0081C222.853 89.8853 221.504 90.3627 220.114 90.3594H207.171V157.333H214.939C216.31 157.336 217.625 157.883 218.595 158.853C219.565 159.823 220.111 161.138 220.114 162.51V167.339C220.112 167.514 220.101 167.688 220.081 167.862H225.288C226.66 167.865 227.974 168.411 228.944 169.381C229.914 170.352 230.46 171.667 230.463 173.039V173.05ZM103.675 157.355H126.095V102.359H103.675V157.355ZM107.782 78.2943H191.004L149.387 60.2456L107.782 78.2943ZM138.177 102.381V157.344H160.598V102.37L138.177 102.381ZM195.1 157.344V102.37H172.669V157.344H195.1Z" fill="white"/>
<path d="M621.294 179.755C617.904 179.755 614.82 178.878 612.043 177.123C609.266 175.367 607.04 173.041 605.366 170.143C603.732 167.204 602.915 163.959 602.915 160.408C602.915 156.857 603.732 153.612 605.366 150.674C607.04 147.735 609.266 145.408 612.043 143.694C614.82 141.939 617.904 141.061 621.294 141.061C623.662 141.061 625.827 141.49 627.787 142.347C629.748 143.163 631.422 144.306 632.811 145.776V142.041H642V178.776H632.811V175.041C631.422 176.51 629.748 177.674 627.787 178.531C625.827 179.347 623.662 179.755 621.294 179.755ZM622.58 170.388C624.377 170.388 626.011 169.939 627.481 169.041C628.951 168.143 630.115 166.939 630.973 165.429C631.871 163.918 632.321 162.245 632.321 160.408C632.321 158.572 631.871 156.898 630.973 155.388C630.115 153.878 628.951 152.674 627.481 151.776C626.011 150.878 624.377 150.429 622.58 150.429C620.783 150.429 619.15 150.878 617.679 151.776C616.209 152.674 615.025 153.878 614.126 155.388C613.268 156.898 612.84 158.572 612.84 160.408C612.84 162.245 613.268 163.918 614.126 165.429C615.025 166.939 616.209 168.143 617.679 169.041C619.15 169.939 620.783 170.388 622.58 170.388Z" fill="#040059"/>
<path d="M585.923 178.776V142.041H596.582V178.776H585.923ZM591.253 136.714C589.66 136.714 588.312 136.163 587.209 135.061C586.107 133.959 585.555 132.612 585.555 131.02C585.555 129.388 586.107 128.041 587.209 126.98C588.312 125.878 589.66 125.327 591.253 125.327C592.886 125.327 594.234 125.878 595.296 126.98C596.399 128.041 596.95 129.388 596.95 131.02C596.95 132.612 596.399 133.959 595.296 135.061C594.234 136.163 592.886 136.714 591.253 136.714Z" fill="#040059"/>
<path d="M557.63 178.776V142.041H567.187V148.347C568.453 146.224 570.045 144.592 571.965 143.449C573.925 142.265 576.212 141.673 578.826 141.673L581.154 151.102C580.378 150.857 579.5 150.735 578.52 150.735C575.457 150.735 572.986 151.735 571.107 153.735C569.229 155.694 568.289 158.51 568.289 162.184V178.776H557.63Z" fill="#040059"/>
<path d="M528.856 179.755C525.466 179.755 522.383 178.878 519.606 177.123C516.829 175.367 514.603 173.041 512.928 170.143C511.295 167.204 510.478 163.959 510.478 160.408C510.478 156.857 511.295 153.612 512.928 150.674C514.603 147.735 516.829 145.408 519.606 143.694C522.383 141.939 525.466 141.061 528.856 141.061C531.225 141.061 533.39 141.49 535.35 142.347C537.31 143.163 538.985 144.306 540.373 145.776V142.041H549.563V178.776H540.373V175.041C538.985 176.51 537.31 177.674 535.35 178.531C533.39 179.347 531.225 179.755 528.856 179.755ZM530.143 170.388C531.94 170.388 533.573 169.939 535.044 169.041C536.514 168.143 537.678 166.939 538.536 165.429C539.434 163.918 539.883 162.245 539.883 160.408C539.883 158.572 539.434 156.898 538.536 155.388C537.678 153.878 536.514 152.674 535.044 151.776C533.573 150.878 531.94 150.429 530.143 150.429C528.346 150.429 526.712 150.878 525.242 151.776C523.772 152.674 522.587 153.878 521.689 155.388C520.831 156.898 520.402 158.572 520.402 160.408C520.402 162.245 520.831 163.918 521.689 165.429C522.587 166.939 523.772 168.143 525.242 169.041C526.712 169.939 528.346 170.388 530.143 170.388Z" fill="#040059"/>
<path d="M493.541 180C489.906 180 486.578 179.122 483.556 177.367C480.533 175.612 478.124 173.245 476.327 170.265C474.571 167.286 473.693 164 473.693 160.408C473.693 156.775 474.571 153.49 476.327 150.551C478.124 147.571 480.533 145.204 483.556 143.449C486.578 141.694 489.906 140.816 493.541 140.816C496.073 140.816 498.462 141.245 500.709 142.102C502.996 142.918 505.017 144.143 506.774 145.775L504.017 156.612C502.996 154.939 501.628 153.49 499.912 152.265C498.238 151 496.257 150.367 493.97 150.367C492.05 150.367 490.335 150.816 488.824 151.714C487.313 152.612 486.129 153.816 485.271 155.327C484.413 156.837 483.984 158.531 483.984 160.408C483.984 162.245 484.413 163.939 485.271 165.49C486.129 167 487.313 168.204 488.824 169.102C490.335 170 492.05 170.449 493.97 170.449C496.257 170.449 498.238 169.837 499.912 168.612C501.628 167.347 502.996 165.878 504.017 164.204L506.774 175.041C505.017 176.673 502.996 177.918 500.709 178.776C498.462 179.592 496.073 180 493.541 180Z" fill="#040059"/>
<path d="M432.628 178.776V142.041H442.185V146.082C443.492 144.367 445.105 143.061 447.025 142.163C448.944 141.265 451.007 140.816 453.212 140.816C455.826 140.816 458.256 141.449 460.502 142.714C462.789 143.939 464.627 145.755 466.016 148.163C467.445 150.531 468.16 153.408 468.16 156.796V178.776H457.5V158.204C457.5 156.163 456.888 154.347 455.663 152.755C454.437 151.163 452.681 150.367 450.394 150.367C448.556 150.367 446.902 151 445.432 152.265C444.002 153.49 443.288 155.429 443.288 158.082V178.776H432.628Z" fill="#040059"/>
<path d="M403.855 179.755C400.465 179.755 397.381 178.878 394.604 177.123C391.827 175.367 389.601 173.041 387.927 170.143C386.293 167.204 385.476 163.959 385.476 160.408C385.476 156.857 386.293 153.612 387.927 150.674C389.601 147.735 391.827 145.408 394.604 143.694C397.381 141.939 400.465 141.061 403.855 141.061C406.223 141.061 408.388 141.49 410.348 142.347C412.309 143.163 413.983 144.306 415.372 145.776V142.041H424.561V178.776H415.372V175.041C413.983 176.51 412.309 177.674 410.348 178.531C408.388 179.347 406.223 179.755 403.855 179.755ZM405.141 170.388C406.938 170.388 408.572 169.939 410.042 169.041C411.512 168.143 412.676 166.939 413.534 165.429C414.432 163.918 414.882 162.245 414.882 160.408C414.882 158.572 414.432 156.898 413.534 155.388C412.676 153.878 411.512 152.674 410.042 151.776C408.572 150.878 406.938 150.429 405.141 150.429C403.344 150.429 401.711 150.878 400.24 151.776C398.77 152.674 397.586 153.878 396.687 155.388C395.829 156.898 395.401 158.572 395.401 160.408C395.401 162.245 395.829 163.918 396.687 165.429C397.586 166.939 398.77 168.143 400.24 169.041C401.711 169.939 403.344 170.388 405.141 170.388Z" fill="#040059"/>
<path d="M362.645 179.755C360.317 179.755 358.173 179.347 356.213 178.531C354.293 177.714 352.619 176.592 351.189 175.163V178.776H342V120H352.659V144.367C354.007 143.306 355.518 142.49 357.193 141.918C358.867 141.347 360.685 141.061 362.645 141.061C366.076 141.061 369.18 141.939 371.957 143.694C374.734 145.408 376.939 147.735 378.573 150.674C380.247 153.612 381.085 156.857 381.085 160.408C381.085 163.959 380.247 167.204 378.573 170.143C376.939 173.041 374.734 175.367 371.957 177.123C369.18 178.878 366.076 179.755 362.645 179.755ZM361.42 170.388C363.217 170.388 364.85 169.939 366.321 169.041C367.791 168.143 368.955 166.939 369.813 165.429C370.711 163.918 371.16 162.245 371.16 160.408C371.16 158.571 370.711 156.898 369.813 155.388C368.955 153.878 367.791 152.674 366.321 151.776C364.85 150.878 363.217 150.429 361.42 150.429C359.623 150.429 357.989 150.878 356.519 151.776C355.049 152.674 353.864 153.878 352.966 155.388C352.108 156.898 351.679 158.571 351.679 160.408C351.679 162.245 352.108 163.918 352.966 165.429C353.864 166.939 355.049 168.143 356.519 169.041C357.989 169.939 359.623 170.388 361.42 170.388Z" fill="#040059"/>
<path d="M764.362 113.758C760.984 113.758 757.91 112.891 755.142 111.157C752.374 109.423 750.156 107.125 748.487 104.262C746.859 101.359 746.045 98.1533 746.045 94.6453C746.045 91.1372 746.859 87.9315 748.487 85.0283C750.156 82.1251 752.374 79.8267 755.142 78.1332C757.91 76.3993 760.984 75.5323 764.362 75.5323C766.723 75.5323 768.881 75.9557 770.834 76.8025C772.788 77.609 774.457 78.738 775.841 80.1896V76.5001H785V112.79H775.841V109.101C774.457 110.553 772.788 111.702 770.834 112.548C768.881 113.355 766.723 113.758 764.362 113.758ZM765.644 104.504C767.436 104.504 769.064 104.061 770.529 103.173C771.995 102.286 773.155 101.097 774.009 99.6049C774.905 98.113 775.353 96.4598 775.353 94.6453C775.353 92.8307 774.905 91.1775 774.009 89.6856C773.155 88.1936 771.995 87.0041 770.529 86.117C769.064 85.2299 767.436 84.7864 765.644 84.7864C763.853 84.7864 762.225 85.2299 760.76 86.117C759.294 87.0041 758.114 88.1936 757.218 89.6856C756.364 91.1775 755.936 92.8307 755.936 94.6453C755.936 96.4598 756.364 98.113 757.218 99.6049C758.114 101.097 759.294 102.286 760.76 103.173C762.225 104.061 763.853 104.504 765.644 104.504Z" fill="#040059"/>
<path d="M729.109 112.79V76.5H739.733V112.79H729.109ZM734.421 71.2379C732.833 71.2379 731.49 70.6936 730.391 69.6048C729.292 68.5161 728.742 67.1855 728.742 65.6129C728.742 64 729.292 62.6694 730.391 61.621C731.49 60.5323 732.833 59.9879 734.421 59.9879C736.049 59.9879 737.392 60.5323 738.451 61.621C739.55 62.6694 740.099 64 740.099 65.6129C740.099 67.1855 739.55 68.5161 738.451 69.6048C737.392 70.6936 736.049 71.2379 734.421 71.2379Z" fill="#040059"/>
<path d="M710.274 114C706.651 114 703.334 113.133 700.322 111.399C697.309 109.665 694.908 107.327 693.117 104.383C691.367 101.439 690.491 98.1935 690.491 94.6451C690.491 91.0564 691.367 87.8104 693.117 84.9072C694.908 81.9637 697.309 79.625 700.322 77.8911C703.334 76.1572 706.651 75.2903 710.274 75.2903C712.798 75.2903 715.179 75.7137 717.418 76.5604C719.698 77.3669 721.712 78.5766 723.463 80.1895L720.715 90.8951C719.698 89.2419 718.334 87.8104 716.624 86.6008C714.955 85.3508 712.981 84.7258 710.702 84.7258C708.788 84.7258 707.079 85.1693 705.573 86.0564C704.067 86.9435 702.886 88.133 702.031 89.625C701.177 91.1169 700.749 92.7903 700.749 94.6451C700.749 96.4596 701.177 98.133 702.031 99.6653C702.886 101.157 704.067 102.347 705.573 103.234C707.079 104.121 708.788 104.564 710.702 104.564C712.981 104.564 714.955 103.96 716.624 102.75C718.334 101.5 719.698 100.048 720.715 98.3951L723.463 109.101C721.712 110.714 719.698 111.944 717.418 112.79C715.179 113.597 712.798 114 710.274 114Z" fill="#040059"/>
<path d="M649.563 112.79V76.5H659.088V80.4919C660.391 78.7983 661.999 77.508 663.912 76.6209C665.825 75.7338 667.881 75.2903 670.079 75.2903C672.684 75.2903 675.106 75.9153 677.345 77.1653C679.624 78.375 681.456 80.1693 682.84 82.5483C684.265 84.8871 684.977 87.7298 684.977 91.0766V112.79H674.353V92.4677C674.353 90.4516 673.742 88.6572 672.521 87.0846C671.3 85.5121 669.55 84.7258 667.27 84.7258C665.438 84.7258 663.79 85.3508 662.324 86.6008C660.9 87.8104 660.187 89.7258 660.187 92.3467V112.79H649.563Z" fill="#040059"/>
<path d="M626.394 114C622.282 114 618.66 113.153 615.525 111.46C612.391 109.766 609.949 107.448 608.198 104.504C606.448 101.52 605.573 98.1129 605.573 94.2822C605.573 90.6129 606.428 87.3669 608.137 84.5443C609.847 81.6814 612.147 79.4233 615.037 77.7701C617.968 76.1169 621.204 75.2903 624.745 75.2903C628.368 75.2903 631.604 76.1169 634.453 77.7701C637.303 79.383 639.541 81.6008 641.17 84.4234C642.839 87.2459 643.673 90.4516 643.673 94.0403V97.7298H621.326C620.308 97.7298 619.331 97.6693 618.395 97.5483C617.459 97.4274 616.523 97.2863 615.586 97.125C616.075 99.5443 617.276 101.52 619.189 103.052C621.143 104.544 623.626 105.29 626.638 105.29C628.958 105.29 631.034 104.827 632.866 103.899C634.738 102.972 636.265 101.823 637.445 100.452L639.765 109.887C637.934 111.258 635.858 112.286 633.537 112.972C631.258 113.657 628.877 114 626.394 114ZM615.342 90.7742C617.377 90.3306 619.372 90.1088 621.326 90.1088H627.798C628.938 90.1088 630.016 90.1492 631.034 90.2298C632.052 90.3104 633.008 90.4516 633.904 90.6532C633.293 88.4758 632.174 86.7621 630.546 85.5121C628.958 84.2621 626.984 83.6371 624.623 83.6371C622.384 83.6371 620.43 84.2822 618.761 85.5725C617.133 86.8225 615.993 88.5564 615.342 90.7742Z" fill="#040059"/>
<path d="M580.529 112.79V76.5H590.054V82.7298C591.316 80.6331 592.904 79.0201 594.817 77.8911C596.771 76.7218 599.05 76.1371 601.655 76.1371L603.976 85.4516C603.202 85.2097 602.327 85.0887 601.35 85.0887C598.297 85.0887 595.835 86.0766 593.962 88.0524C592.09 89.9879 591.153 92.7702 591.153 96.3992V112.79H580.529Z" fill="#040059"/>
<path d="M557.36 114C553.248 114 549.626 113.153 546.491 111.46C543.357 109.766 540.915 107.448 539.164 104.504C537.414 101.52 536.539 98.1129 536.539 94.2822C536.539 90.6129 537.394 87.3669 539.103 84.5443C540.813 81.6814 543.113 79.4233 546.003 77.7701C548.934 76.1169 552.17 75.2903 555.711 75.2903C559.334 75.2903 562.57 76.1169 565.419 77.7701C568.269 79.383 570.507 81.6008 572.136 84.4234C573.805 87.2459 574.639 90.4516 574.639 94.0403V97.7298H552.292C551.274 97.7298 550.297 97.6693 549.361 97.5483C548.425 97.4274 547.489 97.2863 546.552 97.125C547.041 99.5443 548.242 101.52 550.155 103.052C552.109 104.544 554.592 105.29 557.604 105.29C559.924 105.29 562 104.827 563.832 103.899C565.704 102.972 567.231 101.823 568.411 100.452L570.731 109.887C568.9 111.258 566.824 112.286 564.503 112.972C562.224 113.657 559.843 114 557.36 114ZM546.308 90.7742C548.343 90.3306 550.338 90.1088 552.292 90.1088H558.764C559.904 90.1088 560.982 90.1492 562 90.2298C563.018 90.3104 563.974 90.4516 564.87 90.6532C564.259 88.4758 563.14 86.7621 561.512 85.5121C559.924 84.2621 557.95 83.6371 555.589 83.6371C553.35 83.6371 551.396 84.2822 549.727 85.5725C548.099 86.8225 546.959 88.5564 546.308 90.7742Z" fill="#040059"/>
<path d="M516.971 112.79V84.8468H510.133V76.5H517.155V67.246C517.155 62.9315 518.417 59.6452 520.94 57.3871C523.505 55.129 526.659 54 530.404 54C531.788 54 533.111 54.1613 534.373 54.4839C535.676 54.7661 536.815 55.2298 537.792 55.875L535.716 64.4032C534.495 62.9113 533.07 62.1653 531.442 62.1653C530.465 62.1653 529.549 62.5081 528.695 63.1935C527.84 63.879 527.412 65.1492 527.412 67.004V76.5H534.678V84.8468H527.596V112.79H516.971Z" fill="#040059"/>
<path d="M492.355 114C489.872 114 487.349 113.597 484.784 112.79C482.26 111.984 480.286 110.895 478.862 109.524L481.487 99.6048C482.668 101.218 484.296 102.629 486.372 103.839C488.488 105.048 490.666 105.653 492.905 105.653C494.411 105.653 495.49 105.371 496.141 104.806C496.833 104.242 497.179 103.556 497.179 102.75C497.179 101.823 496.833 101.157 496.141 100.754C495.449 100.31 494.737 99.9475 494.004 99.6653L488.875 97.7298C487.735 97.2863 486.433 96.6814 484.967 95.9153C483.502 95.1492 482.22 94.0604 481.121 92.6492C480.062 91.2379 479.533 89.383 479.533 87.0846C479.533 84.9879 480.062 83.0524 481.121 81.2782C482.179 79.504 483.706 78.0725 485.7 76.9838C487.735 75.8548 490.178 75.2903 493.027 75.2903C495.673 75.2903 498.136 75.7338 500.415 76.6209C502.735 77.508 504.425 78.4959 505.483 79.5846L503.041 89.1411C501.657 87.3669 500.008 86.0161 498.095 85.0887C496.222 84.1209 494.431 83.6371 492.722 83.6371C491.419 83.6371 490.463 83.8992 489.852 84.4234C489.241 84.9475 488.936 85.5524 488.936 86.2379C488.936 86.7621 489.14 87.2863 489.547 87.8104C489.995 88.2943 490.727 88.7379 491.745 89.1411L496.507 90.8951C497.891 91.379 499.357 92.0242 500.904 92.8306C502.491 93.6371 503.834 94.7661 504.933 96.2177C506.032 97.629 506.582 99.5846 506.582 102.085C506.582 105.593 505.259 108.456 502.613 110.673C500.008 112.891 496.589 114 492.355 114Z" fill="#040059"/>
<path d="M437.567 112.79V76.5H447.092V80.4919C448.395 78.7983 450.003 77.508 451.916 76.6209C453.829 75.7338 455.885 75.2903 458.083 75.2903C460.688 75.2903 463.11 75.9153 465.349 77.1653C467.628 78.375 469.46 80.1693 470.844 82.5483C472.269 84.8871 472.981 87.7298 472.981 91.0766V112.79H462.357V92.4677C462.357 90.4516 461.746 88.6572 460.525 87.0846C459.304 85.5121 457.554 84.7258 455.274 84.7258C453.442 84.7258 451.794 85.3508 450.328 86.6008C448.904 87.8104 448.191 89.7258 448.191 92.3467V112.79H437.567Z" fill="#040059"/>
<path d="M408.889 113.758C405.51 113.758 402.437 112.891 399.669 111.157C396.901 109.423 394.683 107.125 393.014 104.262C391.385 101.359 390.571 98.1533 390.571 94.6453C390.571 91.1372 391.385 87.9315 393.014 85.0283C394.683 82.1251 396.901 79.8267 399.669 78.1332C402.437 76.3993 405.51 75.5323 408.889 75.5323C411.25 75.5323 413.407 75.9557 415.361 76.8025C417.315 77.609 418.984 78.738 420.368 80.1896V76.5001H429.527V112.79H420.368V109.101C418.984 110.553 417.315 111.702 415.361 112.548C413.407 113.355 411.25 113.758 408.889 113.758ZM410.171 104.504C411.962 104.504 413.59 104.061 415.056 103.173C416.521 102.286 417.681 101.097 418.536 99.6049C419.432 98.113 419.879 96.4598 419.879 94.6453C419.879 92.8307 419.432 91.1775 418.536 89.6856C417.681 88.1936 416.521 87.0041 415.056 86.117C413.59 85.2299 411.962 84.7864 410.171 84.7864C408.38 84.7864 406.752 85.2299 405.286 86.117C403.821 87.0041 402.641 88.1936 401.745 89.6856C400.89 91.1775 400.463 92.8307 400.463 94.6453C400.463 96.4598 400.89 98.113 401.745 99.6049C402.641 101.097 403.821 102.286 405.286 103.173C406.752 104.061 408.38 104.504 410.171 104.504Z" fill="#040059"/>
<path d="M365.528 112.79V76.5H375.053V82.7298C376.315 80.6331 377.902 79.0201 379.816 77.8911C381.769 76.7218 384.049 76.1371 386.654 76.1371L388.974 85.4516C388.201 85.2097 387.326 85.0887 386.349 85.0887C383.296 85.0887 380.833 86.0766 378.961 88.0524C377.088 89.9879 376.152 92.7702 376.152 96.3992V112.79H365.528Z" fill="#040059"/>
<path d="M328 68.1532V58.3549H366.222V68.1532H352.79V112.79H341.433V68.1532H328Z" fill="#040059"/>
</svg>
