<svg width="788" height="199" viewBox="0 0 788 199" fill="none" xmlns="http://www.w3.org/2000/svg">
<g clip-path="url(#clip0_38_1631)">
<path d="M144.11 4.33984C66.2797 4.33984 3.19971 44.6998 3.19971 94.4898C3.19971 144.28 66.2897 188.54 144.11 188.54C221.93 188.54 285.02 144.27 285.02 94.4898C285.02 44.7098 221.93 4.33984 144.11 4.33984Z" fill="#00BCFF"/>
<path d="M98.2597 66.6199C98.1897 66.7599 96.8097 68.1799 97.7097 69.3299C99.8897 72.1099 106.62 73.7099 113.43 72.1799C117.48 71.2699 122.68 67.1399 127.71 63.1499C133.16 58.8199 138.57 54.4799 144.01 52.7599C149.77 50.9299 153.46 51.7099 155.9 52.4499C158.57 53.2499 161.72 55.0099 166.74 58.7699C176.19 65.8699 214.17 99.0299 220.74 104.76C226.02 102.37 251.21 92.1999 283.13 85.1599C280.35 68.1399 270.12 51.9099 254.41 39.1699C232.52 48.3599 203.99 53.8699 177.83 41.0999C177.7 41.0499 163.54 34.3499 149.58 34.6799C128.83 35.1599 119.84 44.1399 110.33 53.6499L98.2797 66.6399L98.2597 66.6199Z" fill="white"/>
<path d="M219.17 108.37C218.72 107.97 174.5 69.28 164.48 61.75C158.68 57.4 155.46 56.29 152.07 55.86C150.31 55.63 147.87 55.96 146.17 56.43C141.51 57.7 135.42 61.77 130.01 66.06C124.41 70.52 119.13 74.72 114.22 75.82C107.96 77.22 100.31 75.57 96.8198 73.21C95.4098 72.26 94.4098 71.16 93.9298 70.05C92.6398 67.06 95.0198 64.67 95.4098 64.27L107.61 51.07C109.03 49.66 110.46 48.24 111.92 46.84C107.98 47.35 104.34 48.36 100.8 49.34C96.3798 50.58 92.1198 51.76 87.8198 51.76C86.0198 51.76 76.3998 50.18 74.5698 49.69C63.5198 46.67 51.0098 43.72 36.5298 36.96C19.1798 49.87 7.87979 65.73 4.52979 83.52C7.01979 84.18 13.5498 85.67 15.2398 86.04C54.4998 94.77 66.7298 103.76 68.9498 105.64C71.3498 102.97 74.8198 101.28 78.6798 101.28C83.0298 101.28 86.9398 103.47 89.3198 106.84C91.5698 105.06 94.6698 103.54 98.6798 103.55C100.5 103.55 102.39 103.89 104.3 104.53C108.73 106.05 111.02 109 112.2 111.67C113.68 111 115.51 110.5 117.66 110.51C119.78 110.51 121.98 110.99 124.19 111.95C131.43 115.06 132.55 122.17 131.9 127.53C132.42 127.47 132.94 127.45 133.46 127.45C142.04 127.45 149.02 134.43 149.02 143.02C149.02 145.68 148.34 148.18 147.16 150.37C149.5 151.68 155.45 154.65 160.68 153.99C164.85 153.46 166.44 152.04 167 151.23C167.39 150.68 167.8 150.03 167.42 149.57L156.34 137.27C156.34 137.27 154.52 135.54 155.12 134.88C155.74 134.2 156.87 135.18 157.67 135.84C163.31 140.55 170.19 147.65 170.19 147.65C170.31 147.73 170.76 148.63 173.31 149.08C175.5 149.47 179.38 149.25 182.07 147.04C182.74 146.48 183.42 145.79 184 145.07C183.95 145.11 183.91 145.15 183.87 145.17C186.71 141.54 183.55 137.88 183.55 137.88L170.62 123.36C170.62 123.36 168.77 121.65 169.4 120.96C169.96 120.36 171.15 121.26 171.96 121.94C176.05 125.36 181.84 131.17 187.38 136.6C188.47 137.39 193.34 140.4 199.79 136.17C203.71 133.6 204.49 130.44 204.38 128.07C204.11 124.92 201.65 122.67 201.65 122.67L183.99 104.91C183.99 104.91 182.12 103.32 182.78 102.51C183.32 101.83 184.53 102.81 185.33 103.47C190.95 108.18 206.19 122.15 206.19 122.15C206.41 122.3 211.67 126.05 218.18 121.91C220.51 120.42 221.99 118.18 222.12 115.57C222.34 111.05 219.16 108.37 219.16 108.37H219.17Z" fill="white"/>
<path d="M133.49 130.88C130.75 130.85 127.75 132.48 127.36 132.24C127.14 132.1 127.53 131 127.78 130.36C128.05 129.73 131.65 118.88 122.86 115.11C116.13 112.22 112.01 115.47 110.6 116.94C110.23 117.32 110.06 117.29 110.02 116.81C109.88 114.85 109.01 109.57 103.2 107.79C94.8997 105.25 89.5597 111.04 88.2097 113.14C87.5997 108.41 83.5997 104.74 78.7097 104.73C73.3897 104.73 69.0697 109.03 69.0597 114.36C69.0597 119.68 73.3697 124 78.6997 124C81.2897 124 83.6297 122.97 85.3597 121.31C85.4197 121.36 85.4397 121.45 85.4097 121.63C84.9997 124.02 84.2597 132.67 93.3297 136.2C96.9697 137.61 100.06 136.56 102.62 134.77C103.38 134.23 103.51 134.46 103.4 135.18C103.07 137.41 103.49 142.17 110.17 144.88C115.25 146.95 118.26 144.84 120.24 143.01C121.1 142.23 121.33 142.36 121.38 143.57C121.62 150.01 126.97 155.13 133.47 155.14C140.17 155.14 145.6 149.73 145.6 143.04C145.6 136.34 140.18 130.98 133.48 130.91L133.49 130.88Z" fill="white"/>
<path d="M144.08 0.609863C64.7697 0.609863 0.479721 42.7899 0.479721 94.5299C0.479721 95.8699 0.459717 99.5599 0.459717 100.03C0.459717 154.93 56.6497 199.38 144.06 199.38C231.47 199.38 287.67 154.93 287.67 100.04V94.5299C287.67 42.7899 223.38 0.609863 144.08 0.609863ZM281.2 84.1199C249.99 91.0599 226.71 101.13 220.88 103.73C207.26 91.8399 175.78 64.4699 167.25 58.0699C162.38 54.3999 159.05 52.4699 156.13 51.5999C154.82 51.1999 153.01 50.7499 150.68 50.7499C148.51 50.7499 146.18 51.1399 143.75 51.9199C138.24 53.6699 132.75 58.0299 127.44 62.2499L127.17 62.4699C122.22 66.3999 117.11 70.4699 113.24 71.3299C111.55 71.7099 109.81 71.9099 108.08 71.9099C103.74 71.9099 99.8497 70.6499 98.3897 68.7899C98.1497 68.4799 98.3097 67.9799 98.8697 67.2699L98.9397 67.1699L110.93 54.2599C120.32 44.8699 129.18 36.0099 149.59 35.5399C149.93 35.5299 150.27 35.5199 150.61 35.5199C163.31 35.5299 176.01 41.2099 177.44 41.8799C189.35 47.6899 201.65 50.6399 214 50.6499C226.85 50.6499 240.11 47.4799 254.05 41.0699C268.61 53.3099 278.26 68.0599 281.2 84.1299V84.1199ZM144.1 6.14986C186.2 6.14986 223.86 18.2199 249.19 37.2199C236.95 42.5199 225.28 45.1899 214.02 45.1899C202.5 45.1799 190.99 42.4099 179.81 36.9599C179.22 36.6799 165.2 30.0699 150.61 30.0599C150.23 30.0599 149.84 30.0599 149.46 30.0699C132.32 30.4699 122.66 36.5599 116.17 41.8899C109.86 42.0499 104.41 43.5699 99.5597 44.9199C95.2297 46.1199 91.4997 47.1599 87.8597 47.1599C86.3597 47.1599 83.6597 47.0199 83.4197 47.0099C79.2397 46.8799 58.2397 41.7299 41.4697 35.3999C66.7397 17.4399 103.36 6.13986 144.11 6.13986L144.1 6.14986ZM36.4897 39.1599C53.9997 46.3199 75.2497 51.8599 81.9697 52.2899C83.8397 52.4099 85.8397 52.6299 87.8397 52.6299C92.2997 52.6299 96.7497 51.3799 101.05 50.1799C103.59 49.4699 106.4 48.6899 109.35 48.1299C108.56 48.8999 107.77 49.6899 106.98 50.4799L94.8097 63.6499C93.8497 64.6199 91.7697 67.1999 93.1397 70.3799C93.6797 71.6599 94.7897 72.8899 96.3397 73.9299C99.2397 75.8799 104.44 77.2099 109.26 77.2099C111.09 77.2099 112.83 77.0299 114.41 76.6699C119.52 75.5299 124.87 71.2599 130.54 66.7499C135.06 63.1599 141.48 58.5999 146.4 57.2599C147.78 56.8899 149.46 56.6499 150.82 56.6499C151.23 56.6499 151.61 56.6699 151.96 56.7199C155.2 57.1299 158.34 58.2299 163.95 62.4399C173.95 69.9499 218.17 108.64 218.6 109.02C218.63 109.04 221.45 111.48 221.25 115.52C221.14 117.78 219.89 119.78 217.71 121.17C215.82 122.37 213.88 122.98 211.91 122.98C208.95 122.98 206.92 121.59 206.78 121.5C206.62 121.37 191.47 107.47 185.89 102.8C185 102.06 184.14 101.4 183.27 101.4C182.8 101.4 182.39 101.6 182.11 101.95C181.23 103.03 182.21 104.53 183.37 105.51L201.07 123.31C201.07 123.31 203.28 125.37 203.52 128.1C203.66 131.05 202.25 133.52 199.32 135.44C197.23 136.82 195.12 137.51 193.05 137.51C190.33 137.51 188.42 136.27 188 135.98L185.46 133.48C180.82 128.91 176.03 124.19 172.52 121.27C171.66 120.56 170.75 119.9 169.88 119.9C169.45 119.9 169.06 120.06 168.76 120.38C168.36 120.82 168.08 121.62 169.08 122.95C169.48 123.5 169.97 123.95 169.97 123.95L182.88 138.46C182.98 138.59 185.54 141.63 183.17 144.65L182.71 145.23C182.32 145.65 181.91 146.05 181.51 146.39C179.31 148.2 176.37 148.39 175.2 148.39C174.57 148.39 173.98 148.34 173.45 148.24C172.18 148.01 171.32 147.66 170.9 147.17L170.74 147.01C170.04 146.28 163.53 139.63 158.14 135.14C157.43 134.54 156.54 133.8 155.63 133.8C155.18 133.8 154.78 133.98 154.46 134.32C153.4 135.49 155 137.23 155.68 137.87L166.69 150.02C166.68 150.13 166.54 150.38 166.28 150.76C165.88 151.31 164.55 152.64 160.55 153.14C160.07 153.2 159.57 153.23 159.09 153.23C154.97 153.23 150.57 151.23 148.3 150.03C149.33 147.85 149.87 145.45 149.87 143.05C149.87 133.98 142.51 126.61 133.44 126.6C133.25 126.6 133.04 126.6 132.85 126.61C133.14 122.47 132.56 114.63 124.51 111.18C122.19 110.18 119.88 109.66 117.64 109.66C115.88 109.66 114.19 109.96 112.6 110.57C110.93 107.33 108.16 104.97 104.56 103.74C102.56 103.05 100.58 102.7 98.6597 102.7C95.3097 102.7 92.2197 103.69 89.4697 105.64C86.8297 102.36 82.8497 100.42 78.6597 100.42C74.9897 100.42 71.4597 101.89 68.8497 104.48C65.4197 101.86 51.8197 93.2199 15.4097 84.9499C13.6697 84.5599 9.71972 83.4299 7.23972 82.6999C10.6497 66.3599 21.0397 51.4299 36.4397 39.1799L36.4897 39.1599ZM104.03 133.94L103.64 133.59H103.24C102.92 133.59 102.58 133.72 102.13 134.04C100.27 135.35 98.4997 135.98 96.6897 135.98C95.6897 135.98 94.6697 135.78 93.6497 135.39C85.2097 132.1 85.8697 124.14 86.2897 121.74C86.3497 121.25 86.2297 120.88 85.9197 120.62L85.3197 120.13L84.7597 120.66C83.1097 122.25 80.9597 123.11 78.6997 123.11C73.8697 123.11 69.9297 119.18 69.9397 114.34C69.9397 109.51 73.8797 105.58 78.7197 105.59C83.0897 105.59 86.8097 108.87 87.3597 113.24L87.6597 115.59L88.9497 113.6C89.0897 113.37 92.6397 108.01 99.1497 108.02C100.39 108.02 101.67 108.22 102.96 108.62C108.15 110.2 109.03 114.91 109.16 116.87C109.25 118.01 110.07 118.07 110.22 118.07C110.67 118.07 111 117.79 111.23 117.54C112.21 116.52 114.34 114.82 117.68 114.82C119.21 114.82 120.83 115.19 122.51 115.91C130.76 119.45 127.02 129.93 126.98 130.04C126.27 131.78 126.24 132.54 126.91 132.99L127.23 133.14H127.47C127.84 133.14 128.3 132.98 129.07 132.72C130.19 132.33 131.88 131.75 133.47 131.75C139.68 131.82 144.73 136.88 144.73 143.01C144.73 149.21 139.67 154.25 133.46 154.25C127.39 154.25 122.45 149.52 122.23 143.51C122.21 142.99 122.16 141.63 121 141.63C120.53 141.63 120.11 141.92 119.64 142.35C118.3 143.59 116.6 144.84 114.12 144.84C112.99 144.84 111.77 144.58 110.48 144.05C104.07 141.45 103.98 137.05 104.24 135.28C104.31 134.81 104.33 134.32 104.01 133.93L104.03 133.94ZM144.1 182.82C67.8397 182.82 6.01971 143.27 6.01971 94.4899C6.01971 92.5299 6.15972 90.5799 6.34972 88.6499C6.95972 88.7999 13.0197 90.2399 14.2697 90.5299C51.4597 98.7899 63.7497 107.38 65.8297 109.01C65.1297 110.7 64.7597 112.52 64.7597 114.36C64.7597 122.05 71.0097 128.31 78.6897 128.31C79.5497 128.31 80.4097 128.23 81.2497 128.07C82.4097 133.73 86.1097 138.02 91.7597 140.22C93.4097 140.85 95.0797 141.18 96.7297 141.18C97.7897 141.18 98.8597 141.05 99.8997 140.79C100.95 143.44 103.29 146.75 108.55 148.88C110.39 149.62 112.23 150.01 114.02 150.01C115.48 150.01 116.91 149.75 118.27 149.25C120.79 155.38 126.78 159.45 133.46 159.45C137.89 159.45 142.14 157.65 145.24 154.46C147.89 155.94 153.49 158.61 159.15 158.62C159.88 158.62 160.56 158.57 161.26 158.49C166.88 157.78 169.49 155.58 170.69 153.87C170.91 153.57 171.1 153.25 171.27 152.92C172.59 153.3 174.05 153.61 175.73 153.62C178.8 153.62 181.74 152.57 184.72 150.41C187.65 148.3 189.73 145.27 190.03 142.69C190.03 142.66 190.03 142.62 190.04 142.58C191.03 142.78 192.04 142.88 193.05 142.88C196.21 142.88 199.32 141.9 202.29 139.95C208.02 136.2 209.01 131.29 208.92 128.08C209.93 128.29 210.95 128.4 211.97 128.4C214.93 128.4 217.85 127.51 220.62 125.74C224.17 123.47 226.31 119.99 226.64 115.95C226.85 113.2 226.17 110.42 224.73 108.04C234.31 103.91 256.21 95.9199 282 90.1099C282.11 91.5699 282.17 93.0399 282.17 94.5199C282.17 143.3 220.35 182.85 144.1 182.85V182.82Z" fill="#0A0080"/>
<path d="M779.99 29.52C774.78 22.98 766.86 19.72 756.24 19.72C745.62 19.72 737.71 22.99 732.5 29.52C727.28 36.05 724.67 43.77 724.67 52.68C724.67 61.59 727.28 69.49 732.5 75.94C737.71 82.37 745.63 85.59 756.24 85.59C766.85 85.59 774.78 82.37 779.99 75.94C785.21 69.49 787.81 61.75 787.81 52.68C787.81 43.61 785.21 36.05 779.99 29.52ZM767.07 67C764.54 70.35 760.92 72.04 756.18 72.04C751.44 72.04 747.82 70.35 745.27 67C742.72 63.65 741.45 58.87 741.45 52.68C741.45 46.49 742.72 41.73 745.27 38.39C747.82 35.05 751.46 33.38 756.18 33.38C760.9 33.38 764.53 35.05 767.07 38.39C769.6 41.73 770.87 46.5 770.87 52.68C770.87 58.86 769.6 63.65 767.07 67Z" fill="white"/>
<path d="M646.71 24.0499C641.42 21.3699 635.37 20.0199 628.56 20.0199C618.09 20.0199 610.7 22.7499 606.39 28.1999C603.68 31.6899 602.17 36.1499 601.81 41.5699H617.46C617.84 39.1699 618.61 37.2799 619.77 35.8799C621.38 33.9899 624.13 33.0399 628 33.0399C631.46 33.0399 634.08 33.5199 635.88 34.4899C637.66 35.4499 638.56 37.2099 638.56 39.7499C638.56 41.8399 637.4 43.3599 635.07 44.3599C633.77 44.9299 631.61 45.3999 628.59 45.7799L623.04 46.4599C616.74 47.2599 611.96 48.5899 608.72 50.4499C602.8 53.8599 599.84 59.3799 599.84 66.9999C599.84 72.8699 601.67 77.4099 605.36 80.6099C609.03 83.8199 613.7 85.1599 619.34 85.4199C654.71 87.0099 654.32 66.7799 654.64 62.5799V39.3099C654.64 31.8399 651.99 26.7599 646.71 24.0599V24.0499ZM638.49 59.3699C638.38 64.7899 636.83 68.5199 633.85 70.5699C630.86 72.6199 627.61 73.6399 624.07 73.6399C621.83 73.6399 619.93 73.0099 618.37 71.7899C616.81 70.5599 616.03 68.5499 616.03 65.7799C616.03 62.6799 617.31 60.3899 619.86 58.8999C621.37 58.0299 623.85 57.2899 627.31 56.6999L631 56.0099C632.84 55.6599 634.28 55.2799 635.34 54.8799C636.41 54.4999 637.44 53.9799 638.47 53.3299V59.3599L638.49 59.3699Z" fill="white"/>
<path d="M566.05 33.8799C570.1 33.8799 573.06 35.1299 574.99 37.6299C576.3 39.4699 577.12 41.5599 577.44 43.8699H594.89C593.94 35.0599 590.86 28.9198 585.65 25.4398C580.43 21.9698 573.75 20.2299 565.58 20.2299C555.97 20.2299 548.43 23.1799 542.97 29.0699C537.51 34.9699 534.77 43.2199 534.77 53.8199C534.77 63.1999 537.24 70.8599 542.19 76.7499C547.14 82.6399 554.85 85.5899 565.33 85.5899C575.81 85.5899 583.75 82.0599 589.09 74.9799C592.44 70.5999 594.32 65.9499 594.71 61.0399H577.32C576.96 64.2899 575.95 66.9399 574.26 68.9799C572.59 71.0099 569.76 72.0399 565.76 72.0399C560.13 72.0399 556.29 69.4699 554.26 64.3199C553.14 61.5699 552.57 57.9398 552.57 53.4099C552.57 48.8799 553.14 44.8699 554.26 41.9799C556.38 36.5899 560.31 33.8799 566.05 33.8799Z" fill="white"/>
<path d="M530.09 20.2299C494.24 20.2299 496.37 51.9599 496.37 51.9599V84.1999H512.64V53.9699C512.64 49.0099 513.27 45.3499 514.5 42.9599C516.73 38.7299 521.1 36.6099 527.6 36.6099C528.09 36.6099 528.73 36.6399 529.52 36.6799C530.31 36.7199 531.21 36.7899 532.25 36.9099V20.3599C531.53 20.3099 531.06 20.2899 530.86 20.2599C530.65 20.2399 530.4 20.2299 530.09 20.2299Z" fill="white"/>
<path d="M483.33 32.25C480.52 28.09 476.95 25.04 472.65 23.1C468.34 21.18 463.5 20.22 458.13 20.22C449.07 20.22 441.71 23.07 436.03 28.78C430.36 34.5 427.51 42.7 427.51 53.41C427.51 64.84 430.66 73.08 436.95 78.15C443.23 83.21 450.49 85.76 458.71 85.76C468.67 85.76 476.42 82.75 481.95 76.74C484.94 73.58 486.81 70.45 487.6 67.36H470.34C469.66 68.34 468.93 69.17 468.12 69.82C465.82 71.71 462.7 72.29 459.03 72.29C455.56 72.29 452.83 71.77 450.37 70.22C446.31 67.72 444.02 63.5 443.78 57.31H488.79C488.85 51.97 488.68 47.88 488.25 45.04C487.51 40.2 485.85 35.94 483.33 32.27V32.25ZM444.18 46.63C444.76 42.61 446.21 39.43 448.48 37.07C450.77 34.72 453.98 33.54 458.13 33.54C461.94 33.54 465.14 34.65 467.72 36.88C470.29 39.1 471.72 42.36 472.02 46.63H444.19H444.18Z" fill="white"/>
<path d="M395.19 20.0099C387.64 20.0099 381.11 23.3199 376.72 28.6199C372.55 23.3199 366.13 20.0099 358.24 20.0099C342.35 20.0099 332.11 31.6799 332.11 47.1299V84.1899H346.98V46.7799C346.98 39.9499 351.6 35.2299 358.25 35.2299C368.05 35.2299 369.06 43.3599 369.06 46.7799V84.1899H383.93V46.7799C383.93 39.9499 388.66 35.2299 395.19 35.2299C404.99 35.2299 406.12 43.3599 406.12 46.7799V84.1899H420.97V47.1299C420.97 31.1999 411.41 20.0099 395.18 20.0099H395.19Z" fill="white"/>
<path d="M703.44 12.0999L703.42 29.5299C701.61 26.6099 699.25 24.3299 696.34 22.6999C693.44 21.0599 690.11 20.2299 686.36 20.2299C678.23 20.2299 671.76 23.2599 666.9 29.2899C662.04 35.3399 659.61 44.0599 659.61 54.5999C659.61 63.7499 662.08 71.2499 667.01 77.0899C671.94 82.9199 681.61 85.4799 690.2 85.4799C720.15 85.4799 719.8 59.7999 719.8 59.7999V0.689908C719.8 0.689908 703.43 -1.0601 703.43 12.0999H703.44ZM700.31 67.1399C697.94 70.5399 694.45 72.2399 689.88 72.2399C685.31 72.2399 681.9 70.5199 679.65 67.1099C677.4 63.6799 676.28 58.6999 676.28 52.9999C676.28 47.6999 677.38 43.2799 679.59 39.7099C681.8 36.1399 685.26 34.3499 689.99 34.3499C693.09 34.3499 695.81 35.3299 698.16 37.2899C701.97 40.5399 703.89 46.3799 703.89 53.9299C703.89 59.3299 702.69 63.7399 700.31 67.1399Z" fill="white"/>
<path d="M366.48 109.06C353.08 108.43 346.32 111.62 341.91 114.99C335.82 119.64 332.11 126.52 332.11 137.51V194.02H339.99C342.1 194.02 344.21 193.29 345.76 191.86C347.5 190.26 348.37 188.3 348.37 186V164.88C350.29 168.19 352.82 170.62 356.02 172.2C359.05 173.61 362.55 174.32 366.53 174.32C374.02 174.32 380.17 171.34 384.94 165.35C389.72 159.2 392.11 151.2 392.11 141.29C392.11 131.38 389.85 124.32 384.43 117.72C380.05 112.38 373.39 109.37 366.49 109.06H366.48ZM372.03 155.44C369.64 158.75 366.37 160.4 362.23 160.4C357.77 160.4 354.34 158.76 351.95 155.44C349.56 152.45 348.36 147.99 348.36 141.99C348.36 135.56 349.47 130.83 351.7 127.84C354.1 124.55 357.45 122.88 361.75 122.88C366.05 122.88 369.64 124.54 372.03 127.84C374.43 131.15 375.62 135.86 375.62 141.99C375.62 147.67 374.43 152.13 372.03 155.44Z" fill="white"/>
<path d="M506.2 114.89C500.67 110.7 495.02 108.51 485.31 108.77C475.45 109.04 468.28 111.8 463.82 117.84C459.36 123.89 457.14 131.79 457.14 141.52C457.14 149.85 458.82 156.56 462.18 161.69C465.55 166.79 469.58 170.29 474.28 172.16C478.96 174.05 483.7 174.44 488.48 173.35C493.25 172.24 497.05 169.51 499.87 165.11V169.1C499.55 174.13 498.34 177.9 496.24 180.42C494.11 182.92 491.77 184.46 489.18 185.01C486.62 185.55 484.02 185.25 481.45 184.06C478.86 182.89 476.95 181.19 475.7 179H458.56C463 192.34 470.97 198.23 485.33 199.27C508.49 200.94 515.87 181.33 515.85 170.75V137.5C515.85 126.51 512.27 119.47 506.22 114.87L506.2 114.89ZM499.39 147.55C498.76 151.23 497.75 153.95 496.33 155.67C493.36 159.75 488.73 161.2 482.49 160.04C476.22 158.85 473.09 152.84 473.09 142.01C473.09 136.98 474.02 132.5 475.91 128.56C477.79 124.65 481.38 122.67 486.7 122.67C490.61 122.67 493.59 124.09 495.62 126.91C497.66 129.74 498.96 132.96 499.5 136.58C500.05 140.19 500 143.85 499.38 147.54L499.39 147.55Z" fill="white"/>
<path d="M443.22 113.24C437.93 110.57 431.88 109.21 425.07 109.21C414.6 109.21 407.22 111.94 402.92 117.4C400.22 120.88 398.7 125.34 398.34 130.76H413.99C414.37 128.37 415.14 126.47 416.29 125.08C417.9 123.19 420.65 122.23 424.52 122.23C427.99 122.23 430.61 122.71 432.4 123.68C434.18 124.64 435.07 126.4 435.07 128.94C435.07 131.02 433.91 132.56 431.58 133.54C430.28 134.11 428.12 134.58 425.1 134.96L419.56 135.63C413.26 136.43 408.47 137.76 405.25 139.62C399.32 143.03 396.37 148.54 396.37 156.16C396.37 162.03 398.2 166.57 401.89 169.77C405.56 172.98 410.23 174.32 415.88 174.58C451.24 176.16 450.84 155.94 451.16 151.74V128.47C451.16 121.01 448.53 115.93 443.24 113.23L443.22 113.24ZM435 148.55C434.9 153.98 433.34 157.7 430.37 159.75C427.39 161.8 424.13 162.82 420.59 162.82C418.35 162.82 416.46 162.19 414.89 160.97C413.33 159.74 412.55 157.74 412.55 154.97C412.55 151.87 413.83 149.58 416.38 148.1C417.9 147.23 420.37 146.49 423.83 145.9L427.53 145.22C429.37 144.87 430.82 144.5 431.86 144.1C432.93 143.71 433.97 143.19 435 142.54V148.57V148.55Z" fill="white"/>
<path d="M577.34 118.37C572.12 111.83 564.2 108.56 553.58 108.56C542.96 108.56 535.06 111.82 529.85 118.37C524.63 124.9 522.02 132.61 522.02 141.52C522.02 150.43 524.63 158.32 529.85 164.77C535.06 171.19 542.98 174.41 553.58 174.41C564.18 174.41 572.11 171.19 577.34 164.77C582.55 158.32 585.15 150.58 585.15 141.52C585.15 132.46 582.55 124.9 577.34 118.37ZM564.41 155.83C561.88 159.19 558.26 160.88 553.54 160.88C548.82 160.88 545.18 159.19 542.63 155.83C540.07 152.48 538.8 147.71 538.8 141.52C538.8 135.33 540.07 130.57 542.63 127.23C545.17 123.89 548.81 122.22 553.54 122.22C558.27 122.22 561.89 123.89 564.41 127.23C566.94 130.57 568.2 135.33 568.2 141.52C568.2 147.71 566.94 152.48 564.41 155.83Z" fill="white"/>
</g>
<defs>
<clipPath id="clip0_38_1631">
<rect width="788" height="199" fill="white"/>
</clipPath>
</defs>
</svg>
