<svg width="78" height="16" viewBox="0 0 78 16" fill="none" xmlns="http://www.w3.org/2000/svg">
<path d="M11.1815 6.52268C10.5152 5.36872 9.48337 4.46975 8.24903 3.96789C7.01468 3.46602 5.64827 3.38989 4.36582 3.75153C3.08337 4.11317 1.95803 4.89195 1.16773 5.96475C0.377435 7.03755 -0.0327442 8.34317 0.0020437 9.67518C0.0368316 11.0072 0.514602 12.2896 1.35982 13.3197C2.20504 14.3498 3.36949 15.0688 4.66907 15.363C5.96865 15.6572 7.32923 15.5098 8.53569 14.9442C9.74216 14.3786 10.7257 13.427 11.3308 12.2398L8.7074 10.9027C8.39964 11.5065 7.89942 11.9905 7.2858 12.2782C6.67218 12.5658 5.98019 12.6408 5.31921 12.4912C4.65824 12.3415 4.06599 11.9758 3.63611 11.4519C3.20622 10.928 2.96322 10.2758 2.94553 9.59831C2.92784 8.92083 3.13646 8.25679 3.53841 7.71116C3.94036 7.16553 4.51271 6.76943 5.16498 6.5855C5.81724 6.40157 6.51221 6.44029 7.14 6.69554C7.76779 6.95079 8.2926 7.40801 8.63145 7.99492L11.1815 6.52268Z" fill="url(#paint0_linear_1_2690)"/>
<path d="M23.2267 4.51767C22.3227 3.93331 21.278 3.60325 20.2023 3.56219C19.1267 3.52112 18.0598 3.77057 17.1139 4.28432C16.168 4.79806 15.3779 5.55713 14.8267 6.48175C14.2756 7.40636 13.9836 8.46238 13.9816 9.53881V14.044L16.9261 15.5421V9.54428C16.9271 8.99681 17.0756 8.45971 17.3559 7.98944C17.6363 7.51918 18.0381 7.13311 18.5192 6.87182C19.0003 6.61052 19.5429 6.48365 20.09 6.50453C20.6371 6.52542 21.1684 6.69329 21.6282 6.9905L23.2267 4.51767Z" fill="url(#paint1_linear_1_2690)"/>
<path d="M77.8352 9.54995C77.8352 12.8593 75.1524 15.5421 71.8431 15.5421C68.5337 15.5421 65.851 12.8593 65.851 9.54995C65.851 6.24059 68.5337 3.55782 71.8431 3.55782C75.1524 3.55782 77.8352 6.24059 77.8352 9.54995ZM68.7954 9.54995C68.7954 11.2331 70.1599 12.5976 71.8431 12.5976C73.5262 12.5976 74.8907 11.2331 74.8907 9.54995C74.8907 7.86679 73.5262 6.50231 71.8431 6.50231C70.1599 6.50231 68.7954 7.86679 68.7954 9.54995Z" fill="url(#paint2_linear_1_2690)"/>
<path d="M63.8536 9.51874C63.8536 7.93116 63.2236 6.40847 62.1018 5.285C60.9801 4.16153 59.4584 3.52912 57.8709 3.52662C56.2833 3.52413 54.7596 4.15176 53.6344 5.2717C52.5091 6.39164 51.8743 7.91234 51.8694 9.49991C51.8644 11.0875 52.4896 12.6122 53.6078 13.7391C54.7259 14.8661 56.2457 15.5033 57.8332 15.5108C59.4208 15.5183 60.9464 14.8954 62.0752 13.779C63.2039 12.6626 63.8436 11.1063 63.8536 9.51874V1.62287L60.909 0V9.53789C60.9039 10.3453 60.5787 11.1177 60.0046 11.6856C59.4305 12.2534 58.6545 12.5701 57.8471 12.5663C57.0396 12.5625 56.2667 12.2385 55.698 11.6653C55.1293 11.0921 54.8113 10.3166 54.8138 9.50916C54.8164 8.70172 55.1392 7.92827 55.7115 7.35866C56.2838 6.78906 57.0588 6.46984 57.8662 6.47111C58.6737 6.47238 59.4476 6.79403 60.0181 7.36543C60.5887 7.93683 60.909 8.73043 60.909 9.53789L63.8536 9.51874Z" fill="url(#paint3_linear_1_2690)"/>
<path d="M49.872 9.61238C49.872 8.12445 49.3184 6.68975 48.3189 5.58746C47.3195 4.48517 45.9457 3.79416 44.4649 3.64888C42.9841 3.50361 41.5022 3.91448 40.3076 4.80152C39.113 5.68857 38.2911 6.98834 38.002 8.4479C37.7128 9.90746 37.977 11.4224 38.7432 12.6979C39.5094 13.9734 40.7227 14.9182 42.147 15.3485C43.5714 15.7788 45.1049 15.6637 46.4491 15.0257C47.7933 14.3878 48.8521 13.2725 49.4194 11.8969L46.6973 10.7743C46.4088 11.4739 45.8703 12.0412 45.1866 12.3656C44.5029 12.6901 43.723 12.7486 42.9985 12.5298C42.2741 12.311 41.657 11.8304 41.2673 11.1817C40.8776 10.533 40.7432 9.76246 40.8903 9.02012C41.0374 8.27778 41.4554 7.6167 42.063 7.16555C42.6705 6.71439 43.4242 6.50542 44.1774 6.57931C44.9306 6.65319 45.6293 7.00465 46.1376 7.56528C46.2578 7.69786 46.3653 7.83989 46.4595 7.9895L43.911 9.61238H49.872Z" fill="url(#paint4_linear_1_2690)"/>
<path d="M35.8903 9.61238C35.8903 8.12445 35.3368 6.68975 34.3373 5.58746C33.3379 4.48517 31.9641 3.79416 30.4833 3.64888C29.0024 3.50361 27.5205 3.91448 26.3259 4.80152C25.1313 5.68857 24.3095 6.98834 24.0203 8.4479C23.7312 9.90746 23.9954 11.4224 24.7616 12.6979C25.5277 13.9734 26.7411 14.9182 28.1654 15.3485C29.5898 15.7788 31.1233 15.6637 32.4675 15.0257C33.8117 14.3878 34.8705 13.2725 35.4377 11.8969L32.7157 10.7743C32.4271 11.4739 31.8886 12.0412 31.205 12.3656C30.5213 12.6901 29.7413 12.7486 29.0169 12.5298C28.2925 12.311 27.6754 11.8304 27.2857 11.1817C26.896 10.533 26.7616 9.76246 26.9087 9.02012C27.0558 8.27778 27.4738 7.6167 28.0813 7.16555C28.6889 6.71439 29.4426 6.50542 30.1958 6.57931C30.9489 6.65319 31.6477 7.00465 32.156 7.56528C32.2762 7.69786 32.3837 7.83989 32.4778 7.9895L29.9294 9.61238H35.8903Z" fill="url(#paint5_linear_1_2690)"/>
<defs>
<linearGradient id="paint0_linear_1_2690" x1="79.2488" y1="-0.803666" x2="75.1949" y2="24.4057" gradientUnits="userSpaceOnUse">
<stop stop-color="#F709FC"/>
<stop offset="0.460021" stop-color="#7B30CB"/>
<stop offset="1" stop-color="#0691F6"/>
</linearGradient>
<linearGradient id="paint1_linear_1_2690" x1="79.2488" y1="-0.803666" x2="75.1949" y2="24.4057" gradientUnits="userSpaceOnUse">
<stop stop-color="#F709FC"/>
<stop offset="0.460021" stop-color="#7B30CB"/>
<stop offset="1" stop-color="#0691F6"/>
</linearGradient>
<linearGradient id="paint2_linear_1_2690" x1="79.2488" y1="-0.803666" x2="75.1949" y2="24.4057" gradientUnits="userSpaceOnUse">
<stop stop-color="#F709FC"/>
<stop offset="0.460021" stop-color="#7B30CB"/>
<stop offset="1" stop-color="#0691F6"/>
</linearGradient>
<linearGradient id="paint3_linear_1_2690" x1="79.2488" y1="-0.803666" x2="75.1949" y2="24.4057" gradientUnits="userSpaceOnUse">
<stop stop-color="#F709FC"/>
<stop offset="0.460021" stop-color="#7B30CB"/>
<stop offset="1" stop-color="#0691F6"/>
</linearGradient>
<linearGradient id="paint4_linear_1_2690" x1="79.2488" y1="-0.803666" x2="75.1949" y2="24.4057" gradientUnits="userSpaceOnUse">
<stop stop-color="#F709FC"/>
<stop offset="0.460021" stop-color="#7B30CB"/>
<stop offset="1" stop-color="#0691F6"/>
</linearGradient>
<linearGradient id="paint5_linear_1_2690" x1="79.2488" y1="-0.803666" x2="75.1949" y2="24.4057" gradientUnits="userSpaceOnUse">
<stop stop-color="#F709FC"/>
<stop offset="0.460021" stop-color="#7B30CB"/>
<stop offset="1" stop-color="#0691F6"/>
</linearGradient>
</defs>
</svg>
