<svg width="102" height="102" viewBox="0 0 102 102" fill="none" xmlns="http://www.w3.org/2000/svg">
<path d="M51 1C78.6142 1 101 23.3858 101 51C101 78.6142 78.6142 101 51 101C23.3858 101 1 78.6142 1 51C1 23.3858 23.3858 1 51 1ZM51 25.752C37.0557 25.752 25.752 37.0557 25.752 51C25.752 64.9443 37.0557 76.248 51 76.248C64.9443 76.248 76.248 64.9443 76.248 51C76.248 37.0557 64.9443 25.752 51 25.752Z" fill="#D9D9D9"/>
<path d="M51 1C78.6142 1 101 23.3858 101 51C101 78.6142 78.6142 101 51 101C23.3858 101 1 78.6142 1 51C1 23.3858 23.3858 1 51 1ZM51 25.752C37.0557 25.752 25.752 37.0557 25.752 51C25.752 64.9443 37.0557 76.248 51 76.248C64.9443 76.248 76.248 64.9443 76.248 51C76.248 37.0557 64.9443 25.752 51 25.752Z" fill="url(#paint0_linear_1_7662)"/>
<path d="M50.2357 1.18719C61.4222 1.1056 72.2641 4.56714 81.1494 11.0571L50.0313 51.5558C49.9032 51.4622 49.7469 51.4123 49.5856 51.4135L50.2357 1.18719Z" fill="#D9D9D9"/>
<path d="M50.2357 1.18719C61.4222 1.1056 72.2641 4.56714 81.1494 11.0571L50.0313 51.5558C49.9032 51.4622 49.7469 51.4123 49.5856 51.4135L50.2357 1.18719Z" fill="url(#paint1_linear_1_7662)"/>
<defs>
<linearGradient id="paint0_linear_1_7662" x1="102.816" y1="-4.15022" x2="21.9259" y2="96.6955" gradientUnits="userSpaceOnUse">
<stop stop-color="#F709FC"/>
<stop offset="0.460021" stop-color="#7B30CB"/>
<stop offset="1" stop-color="#0691F6"/>
</linearGradient>
<linearGradient id="paint1_linear_1_7662" x1="90.4772" y1="-14.3918" x2="16.1399" y2="91.2457" gradientUnits="userSpaceOnUse">
<stop stop-color="#F709FC"/>
<stop offset="0.470452" stop-color="#7B30CB"/>
<stop offset="1" stop-color="#0691F6"/>
</linearGradient>
</defs>
</svg>
