<svg width="201" height="71" viewBox="0 0 201 71" fill="none" xmlns="http://www.w3.org/2000/svg">
<path d="M25.6487 1.80273C33.1827 -0.322161 41.2099 0.125427 48.4612 3.07422C55.7128 6.0232 61.7748 11.3063 65.6888 18.0869L50.7083 26.7373L33.9193 36.1592L41.9466 19.1025C38.2584 17.6027 34.175 17.3753 30.3431 18.4561C26.5114 19.5369 23.1487 21.8643 20.7874 25.0703C18.4262 28.2764 17.2011 32.1785 17.305 36.1592C17.409 40.1399 18.8363 43.9724 21.3616 47.0508C23.8871 50.1292 27.3663 52.2779 31.2493 53.1572C35.1324 54.0365 39.1982 53.5966 42.803 51.9062C46.4079 50.2159 49.3466 47.3712 51.1546 43.8232L66.5667 51.6807C63.0119 58.6563 57.2335 64.2477 50.1458 67.5713C43.0581 70.8948 35.0648 71.761 27.43 70.0322C19.7953 68.3034 12.954 64.0791 7.98859 58.0264C3.02309 51.9736 0.216395 44.4373 0.0120239 36.6104C-0.192279 28.7835 2.21787 21.1113 6.86066 14.8076C11.5035 8.50402 18.1147 3.92771 25.6487 1.80273ZM160.598 55.9414C163.79 55.9415 166.378 58.5294 166.378 61.7217C166.378 64.9138 163.79 67.5019 160.598 67.502C159.525 67.502 158.519 67.209 157.658 66.6992V70.751H154.818C154.818 70.751 154.818 62.7218 154.818 61.7217C154.818 58.5294 157.406 55.9414 160.598 55.9414ZM132.182 67.5322H129.354V64.7051H132.182V67.5322ZM169.803 67.5146H166.976V55.9648H169.803V67.5146ZM136.324 56.1816C137.559 55.8331 138.876 55.9061 140.066 56.3896C141.255 56.8733 142.25 57.7396 142.892 58.8516L140.435 60.2705C140.108 59.705 139.602 59.2645 138.997 59.0186C138.392 58.7726 137.723 58.7349 137.094 58.9121C136.466 59.0893 135.914 59.4714 135.527 59.9971C135.139 60.5229 134.938 61.1635 134.955 61.8164C134.973 62.4692 135.206 63.0977 135.62 63.6025C136.035 64.1074 136.606 64.4593 137.242 64.6035C137.88 64.7477 138.547 64.6757 139.138 64.3984C139.729 64.1212 140.212 63.6551 140.508 63.0732L143.036 64.3613C142.453 65.5054 141.505 66.4227 140.342 66.9678C139.179 67.5128 137.868 67.6546 136.616 67.3711C135.363 67.0875 134.242 66.3949 133.427 65.4023C132.613 64.4096 132.152 63.1734 132.118 61.8896C132.085 60.6062 132.48 59.3482 133.242 58.3145C134.003 57.2806 135.088 56.5302 136.324 56.1816ZM173.844 55.9512H178.375V58.5537H173.844V61.7451C173.845 62.2726 173.988 62.7901 174.258 63.2432C174.528 63.6964 174.916 64.0685 175.379 64.3203C175.843 64.5721 176.366 64.694 176.893 64.6738C177.42 64.6537 177.932 64.4925 178.375 64.2061L179.915 66.5889C179.044 67.1519 178.038 67.4702 177.001 67.5098C175.965 67.5493 174.936 67.3095 174.025 66.8145C173.113 66.3194 172.352 65.5873 171.821 64.6963C171.289 63.8052 171.008 62.7874 171.006 61.75V52.7764L173.844 51.333V55.9512ZM193.905 61.7451C193.906 62.2725 194.049 62.7901 194.319 63.2432C194.589 63.6963 194.976 64.0685 195.44 64.3203C195.903 64.5721 196.427 64.694 196.954 64.6738C197.482 64.6536 197.994 64.4924 198.437 64.2061L199.977 66.5889C199.106 67.152 198.098 67.4702 197.062 67.5098C196.026 67.5492 194.998 67.3093 194.086 66.8145C193.175 66.3193 192.412 65.5874 191.881 64.6963C191.35 63.8052 191.07 62.7873 191.068 61.75V52.7764L193.905 51.333V61.7451ZM148.433 55.9414C151.625 55.9417 154.212 58.5295 154.212 61.7217C154.212 62.7211 154.213 67.502 154.213 67.502H151.372V66.6992C150.511 67.2089 149.506 67.5019 148.433 67.502C145.241 67.502 142.653 64.9138 142.653 61.7217C142.653 58.5294 145.241 55.9414 148.433 55.9414ZM184.7 55.9414C187.892 55.9414 190.48 58.5294 190.48 61.7217C190.48 62.7211 190.481 67.502 190.481 67.502H187.64V66.6992C186.779 67.209 185.773 67.502 184.7 67.502C181.508 67.5017 178.92 64.9137 178.92 61.7217C178.92 58.5295 181.507 55.9416 184.7 55.9414ZM148.433 58.7812C146.809 58.7812 145.492 60.0981 145.492 61.7217C145.493 63.3452 146.809 64.6611 148.433 64.6611C150.056 64.6609 151.372 63.345 151.372 61.7217C151.372 60.0982 150.056 58.7815 148.433 58.7812ZM160.598 58.7812C158.974 58.7812 157.658 60.0981 157.658 61.7217C157.658 63.3452 158.974 64.6611 160.598 64.6611C162.221 64.6611 163.537 63.3451 163.537 61.7217C163.537 60.0981 162.222 58.7813 160.598 58.7812ZM184.7 58.7812C183.076 58.7815 181.76 60.0982 181.76 61.7217C181.76 63.345 183.076 64.6609 184.7 64.6611C186.323 64.6611 187.64 63.3452 187.64 61.7217C187.64 60.0981 186.323 58.7812 184.7 58.7812ZM169.803 55.5127H166.976V52.6855H169.803V55.5127ZM169.438 14.7998C169.438 14.7998 169.438 31.489 169.438 33.916C169.438 41.928 162.942 48.4229 154.93 48.4229C146.918 48.4226 140.423 41.9279 140.423 33.916C140.423 25.9042 146.918 19.4094 154.93 19.4092C157.624 19.4092 160.147 20.1434 162.309 21.4229V10.8711L169.438 14.7998ZM74.3734 19.3818C76.9772 19.4813 79.5062 20.2798 81.6946 21.6943L77.8255 27.6816C76.7124 26.9621 75.4254 26.5554 74.1009 26.5049C72.7765 26.4544 71.4629 26.762 70.2982 27.3945C69.1335 28.0271 68.1604 28.9612 67.4818 30.0996C66.8031 31.2381 66.4442 32.5388 66.4417 33.8643V48.3848L59.3128 44.7588V33.8506C59.3177 31.2448 60.0245 28.6885 61.3587 26.4502C62.6931 24.2117 64.6058 22.3737 66.8958 21.1299C69.1859 19.8861 71.7692 19.2824 74.3734 19.3818ZM85.2698 22.2305C88.1619 20.0831 91.7494 19.0888 95.3343 19.4404C98.9194 19.7921 102.246 21.4651 104.665 24.1338C107.085 26.8024 108.425 30.2758 108.425 33.8779H93.9935L100.163 29.9492C99.9355 29.587 99.6751 29.2428 99.3841 28.9219C98.1534 27.5646 96.4614 26.714 94.638 26.5352C92.8147 26.3564 90.9897 26.8619 89.5189 27.9541C88.048 29.0464 87.036 30.6472 86.68 32.4443C86.324 34.2415 86.6497 36.1072 87.5931 37.6777C88.5365 39.2482 90.0307 40.4116 91.7845 40.9414C93.5382 41.4711 95.4263 41.3294 97.0814 40.5439C98.7365 39.7584 100.041 38.3851 100.74 36.6914L107.329 39.4092C105.956 42.7393 103.392 45.4398 100.138 46.9844C96.8838 48.5288 93.1712 48.8073 89.723 47.7656C86.2747 46.7239 83.3367 44.4366 81.4818 41.3486C79.6268 38.2606 78.9878 34.5922 79.6878 31.0586C80.3879 27.5251 82.3778 24.378 85.2698 22.2305ZM115.794 22.2305C118.686 20.0829 122.275 19.0887 125.86 19.4404C129.445 19.7922 132.771 21.4652 135.191 24.1338C137.61 26.8024 138.95 30.2758 138.951 33.8779H124.519L130.689 29.9492C130.461 29.587 130.2 29.2428 129.909 28.9219C128.679 27.5646 126.987 26.714 125.163 26.5352C123.34 26.3563 121.515 26.8619 120.044 27.9541C118.573 29.0464 117.561 30.6472 117.205 32.4443C116.849 34.2415 117.175 36.1072 118.118 37.6777C119.062 39.2481 120.556 40.4116 122.31 40.9414C124.064 41.4711 125.952 41.3294 127.607 40.5439C129.262 39.7584 130.565 38.385 131.264 36.6914L137.855 39.4092C136.481 42.7394 133.918 45.4398 130.663 46.9844C127.409 48.5288 123.697 48.8072 120.248 47.7656C116.8 46.7239 113.862 44.4365 112.007 41.3486C110.152 38.2606 109.513 34.5922 110.213 31.0586C110.913 27.5251 112.902 24.378 115.794 22.2305ZM185.493 19.3711C193.505 19.3711 200 25.8659 200 33.8779C200 41.89 193.505 48.3848 185.493 48.3848C177.481 48.3848 170.987 41.89 170.987 33.8779C170.987 25.8659 177.482 19.3711 185.493 19.3711ZM154.93 26.5381C150.855 26.5383 147.552 29.8412 147.552 33.916C147.552 37.9908 150.855 41.2947 154.93 41.2949C159.005 41.2949 162.309 37.991 162.309 33.916C162.309 29.8411 159.005 26.5381 154.93 26.5381ZM185.493 26.5C181.419 26.5 178.116 29.803 178.116 33.8779C178.116 37.9529 181.419 41.2568 185.493 41.2568C189.568 41.2568 192.871 37.9529 192.871 33.8779C192.871 29.803 189.568 26.5 185.493 26.5Z" fill="url(#paint0_linear_150_1683)"/>
<defs>
<linearGradient id="paint0_linear_150_1683" x1="203.633" y1="-3.14533" x2="173.107" y2="104.94" gradientUnits="userSpaceOnUse">
<stop stop-color="#F709FC"/>
<stop offset="0.460021" stop-color="#7B30CB"/>
<stop offset="1" stop-color="#0691F6"/>
</linearGradient>
</defs>
</svg>
