<svg width="788" height="199" viewBox="0 0 788 199" fill="none" xmlns="http://www.w3.org/2000/svg">
<path d="M143.65 3.72998C65.82 3.72998 2.73999 44.09 2.73999 93.88C2.73999 143.67 65.83 187.93 143.65 187.93C221.47 187.93 284.56 143.66 284.56 93.88C284.56 44.1 221.47 3.72998 143.65 3.72998Z" fill="#00BCFF"/>
<path d="M97.8 66.01C97.73 66.15 96.35 67.57 97.25 68.72C99.43 71.5 106.16 73.1 112.97 71.57C117.02 70.66 122.22 66.53 127.25 62.54C132.7 58.21 138.11 53.87 143.55 52.15C149.31 50.32 153 51.1 155.44 51.84C158.11 52.64 161.26 54.4 166.28 58.16C175.73 65.26 213.71 98.42 220.28 104.15C225.56 101.76 250.75 91.59 282.67 84.55C279.89 67.53 269.66 51.3 253.95 38.56C232.06 47.75 203.53 53.26 177.37 40.49C177.24 40.44 163.08 33.74 149.12 34.07C128.37 34.55 119.38 43.53 109.87 53.04L97.82 66.03L97.8 66.01Z" fill="white"/>
<path d="M218.71 107.76C218.26 107.36 174.04 68.67 164.02 61.14C158.22 56.79 155 55.68 151.61 55.25C149.85 55.02 147.41 55.35 145.71 55.82C141.05 57.09 134.96 61.16 129.55 65.45C123.95 69.91 118.67 74.11 113.76 75.21C107.5 76.61 99.8501 74.96 96.3601 72.6C94.9501 71.65 93.9501 70.55 93.4701 69.44C92.1801 66.45 94.5601 64.06 94.9501 63.66L107.15 50.46C108.57 49.05 110 47.63 111.46 46.23C107.52 46.74 103.88 47.75 100.34 48.73C95.9201 49.97 91.6601 51.15 87.3601 51.15C85.5601 51.15 75.9401 49.57 74.1101 49.08C63.0601 46.06 50.5501 43.11 36.0701 36.35C18.7201 49.26 7.42007 65.12 4.07007 82.91C6.56007 83.57 13.0901 85.06 14.7801 85.43C54.0401 94.16 66.2701 103.15 68.4901 105.03C70.8901 102.36 74.3601 100.67 78.2201 100.67C82.5701 100.67 86.4801 102.86 88.8601 106.23C91.1101 104.45 94.2101 102.93 98.2201 102.94C100.04 102.94 101.93 103.28 103.84 103.92C108.27 105.44 110.56 108.39 111.74 111.06C113.22 110.39 115.05 109.89 117.2 109.9C119.32 109.9 121.52 110.38 123.73 111.34C130.97 114.45 132.09 121.56 131.44 126.92C131.96 126.86 132.48 126.84 133 126.84C141.58 126.84 148.56 133.82 148.56 142.41C148.56 145.07 147.88 147.57 146.7 149.76C149.04 151.07 154.99 154.04 160.22 153.38C164.39 152.85 165.98 151.43 166.54 150.62C166.93 150.07 167.34 149.42 166.96 148.96L155.88 136.66C155.88 136.66 154.06 134.93 154.66 134.27C155.28 133.59 156.41 134.57 157.21 135.23C162.85 139.94 169.73 147.04 169.73 147.04C169.85 147.12 170.3 148.02 172.85 148.47C175.04 148.86 178.92 148.64 181.61 146.43C182.28 145.87 182.96 145.18 183.54 144.46C183.49 144.5 183.45 144.54 183.41 144.56C186.25 140.93 183.09 137.27 183.09 137.27L170.16 122.75C170.16 122.75 168.31 121.04 168.94 120.35C169.5 119.75 170.69 120.65 171.5 121.33C175.59 124.75 181.38 130.56 186.92 135.99C188.01 136.78 192.88 139.79 199.33 135.56C203.25 132.99 204.03 129.83 203.92 127.46C203.65 124.31 201.19 122.06 201.19 122.06L183.53 104.3C183.53 104.3 181.66 102.71 182.32 101.9C182.86 101.22 184.07 102.2 184.87 102.86C190.49 107.57 205.73 121.54 205.73 121.54C205.95 121.69 211.21 125.44 217.72 121.3C220.05 119.81 221.53 117.57 221.66 114.96C221.88 110.44 218.7 107.76 218.7 107.76H218.71Z" fill="white"/>
<path d="M133.03 130.27C130.29 130.24 127.29 131.87 126.9 131.63C126.68 131.49 127.07 130.39 127.32 129.75C127.59 129.12 131.19 118.27 122.4 114.5C115.67 111.61 111.55 114.86 110.14 116.33C109.77 116.71 109.6 116.68 109.56 116.2C109.42 114.24 108.55 108.96 102.74 107.18C94.44 104.64 89.1 110.43 87.75 112.53C87.14 107.8 83.14 104.13 78.25 104.12C72.93 104.12 68.61 108.42 68.6 113.75C68.6 119.07 72.91 123.39 78.24 123.39C80.83 123.39 83.17 122.36 84.9 120.7C84.96 120.75 84.98 120.84 84.95 121.02C84.54 123.41 83.8 132.06 92.87 135.59C96.51 137 99.6 135.95 102.16 134.16C102.92 133.62 103.05 133.85 102.94 134.57C102.61 136.8 103.03 141.56 109.71 144.27C114.79 146.34 117.8 144.23 119.78 142.4C120.64 141.62 120.87 141.75 120.92 142.96C121.16 149.4 126.51 154.52 133.01 154.53C139.71 154.53 145.14 149.12 145.14 142.43C145.14 135.73 139.72 130.37 133.02 130.3L133.03 130.27Z" fill="white"/>
<path d="M143.62 0C64.31 0 0.0200043 42.18 0.0200043 93.92C0.0200043 95.26 0 98.95 0 99.42C0 154.32 56.19 198.77 143.6 198.77C231.01 198.77 287.21 154.32 287.21 99.43V93.92C287.21 42.18 222.92 0 143.62 0ZM280.74 83.51C249.53 90.45 226.25 100.52 220.42 103.12C206.8 91.23 175.32 63.86 166.79 57.46C161.92 53.79 158.59 51.86 155.67 50.99C154.36 50.59 152.55 50.14 150.22 50.14C148.05 50.14 145.72 50.53 143.29 51.31C137.78 53.06 132.29 57.42 126.98 61.64L126.71 61.86C121.76 65.79 116.65 69.86 112.78 70.72C111.09 71.1 109.35 71.3 107.62 71.3C103.28 71.3 99.39 70.04 97.93 68.18C97.69 67.87 97.85 67.37 98.41 66.66L98.48 66.56L110.47 53.65C119.86 44.26 128.72 35.4 149.13 34.93C149.47 34.92 149.81 34.91 150.15 34.91C162.85 34.92 175.55 40.6 176.98 41.27C188.89 47.08 201.19 50.03 213.54 50.04C226.39 50.04 239.65 46.87 253.59 40.46C268.15 52.7 277.8 67.45 280.74 83.52V83.51ZM143.64 5.54C185.74 5.54 223.4 17.61 248.73 36.61C236.49 41.91 224.82 44.58 213.56 44.58C202.04 44.57 190.53 41.8 179.35 36.35C178.76 36.07 164.74 29.46 150.15 29.45C149.77 29.45 149.38 29.45 149 29.46C131.86 29.86 122.2 35.95 115.71 41.28C109.4 41.44 103.95 42.96 99.1 44.31C94.77 45.51 91.04 46.55 87.4 46.55C85.9 46.55 83.2 46.41 82.96 46.4C78.78 46.27 57.78 41.12 41.01 34.79C66.28 16.83 102.9 5.53 143.65 5.53L143.64 5.54ZM36.03 38.55C53.54 45.71 74.79 51.25 81.51 51.68C83.38 51.8 85.38 52.02 87.38 52.02C91.84 52.02 96.29 50.77 100.59 49.57C103.13 48.86 105.94 48.08 108.89 47.52C108.1 48.29 107.31 49.08 106.52 49.87L94.35 63.04C93.39 64.01 91.31 66.59 92.68 69.77C93.22 71.05 94.33 72.28 95.88 73.32C98.78 75.27 103.98 76.6 108.8 76.6C110.63 76.6 112.37 76.42 113.95 76.06C119.06 74.92 124.41 70.65 130.08 66.14C134.6 62.55 141.02 57.99 145.94 56.65C147.32 56.28 149 56.04 150.36 56.04C150.77 56.04 151.15 56.06 151.5 56.11C154.74 56.52 157.88 57.62 163.49 61.83C173.49 69.34 217.71 108.03 218.14 108.41C218.17 108.43 220.99 110.87 220.79 114.91C220.68 117.17 219.43 119.17 217.25 120.56C215.36 121.76 213.42 122.37 211.45 122.37C208.49 122.37 206.46 120.98 206.32 120.89C206.16 120.76 191.01 106.86 185.43 102.19C184.54 101.45 183.68 100.79 182.81 100.79C182.34 100.79 181.93 100.99 181.65 101.34C180.77 102.42 181.75 103.92 182.91 104.9L200.61 122.7C200.61 122.7 202.82 124.76 203.06 127.49C203.2 130.44 201.79 132.91 198.86 134.83C196.77 136.21 194.66 136.9 192.59 136.9C189.87 136.9 187.96 135.66 187.54 135.37L185 132.87C180.36 128.3 175.57 123.58 172.06 120.66C171.2 119.95 170.29 119.29 169.42 119.29C168.99 119.29 168.6 119.45 168.3 119.77C167.9 120.21 167.62 121.01 168.62 122.34C169.02 122.89 169.51 123.34 169.51 123.34L182.42 137.85C182.52 137.98 185.08 141.02 182.71 144.04L182.25 144.62C181.86 145.04 181.45 145.44 181.05 145.78C178.85 147.59 175.91 147.78 174.74 147.78C174.11 147.78 173.52 147.73 172.99 147.63C171.72 147.4 170.86 147.05 170.44 146.56L170.28 146.4C169.58 145.67 163.07 139.02 157.68 134.53C156.97 133.93 156.08 133.19 155.17 133.19C154.72 133.19 154.32 133.37 154 133.71C152.94 134.88 154.54 136.62 155.22 137.26L166.23 149.41C166.22 149.52 166.08 149.77 165.82 150.15C165.42 150.7 164.09 152.03 160.09 152.53C159.61 152.59 159.11 152.62 158.63 152.62C154.51 152.62 150.11 150.62 147.84 149.42C148.87 147.24 149.41 144.84 149.41 142.44C149.41 133.37 142.05 126 132.98 125.99C132.79 125.99 132.58 125.99 132.39 126C132.68 121.86 132.1 114.02 124.05 110.57C121.73 109.57 119.42 109.05 117.18 109.05C115.42 109.05 113.73 109.35 112.14 109.96C110.47 106.72 107.7 104.36 104.1 103.13C102.1 102.44 100.12 102.09 98.2 102.09C94.85 102.09 91.76 103.08 89.01 105.03C86.37 101.75 82.39 99.81 78.2 99.81C74.53 99.81 71 101.28 68.39 103.87C64.96 101.25 51.36 92.61 14.95 84.34C13.21 83.95 9.26 82.82 6.78 82.09C10.19 65.75 20.58 50.82 35.98 38.57L36.03 38.55ZM103.57 133.33L103.18 132.98H102.78C102.46 132.98 102.12 133.11 101.67 133.43C99.81 134.74 98.04 135.37 96.23 135.37C95.23 135.37 94.21 135.17 93.19 134.78C84.75 131.49 85.41 123.53 85.83 121.13C85.89 120.64 85.77 120.27 85.46 120.01L84.86 119.52L84.3 120.05C82.65 121.64 80.5 122.5 78.24 122.5C73.41 122.5 69.47 118.57 69.48 113.73C69.48 108.9 73.42 104.97 78.26 104.98C82.63 104.98 86.35 108.26 86.9 112.63L87.2 114.98L88.49 112.99C88.63 112.76 92.18 107.4 98.69 107.41C99.93 107.41 101.21 107.61 102.5 108.01C107.69 109.59 108.57 114.3 108.7 116.26C108.79 117.4 109.61 117.46 109.76 117.46C110.21 117.46 110.54 117.18 110.77 116.93C111.75 115.91 113.88 114.21 117.22 114.21C118.75 114.21 120.37 114.58 122.05 115.3C130.3 118.84 126.56 129.32 126.52 129.43C125.81 131.17 125.78 131.93 126.45 132.38L126.77 132.53H127.01C127.38 132.53 127.84 132.37 128.61 132.11C129.73 131.72 131.42 131.14 133.01 131.14C139.22 131.21 144.27 136.27 144.27 142.4C144.27 148.6 139.21 153.64 133 153.64C126.93 153.64 121.99 148.91 121.77 142.9C121.75 142.38 121.7 141.02 120.54 141.02C120.07 141.02 119.65 141.31 119.18 141.74C117.84 142.98 116.14 144.23 113.66 144.23C112.53 144.23 111.31 143.97 110.02 143.44C103.61 140.84 103.52 136.44 103.78 134.67C103.85 134.2 103.87 133.71 103.55 133.32L103.57 133.33ZM143.64 182.21C67.38 182.21 5.56 142.66 5.56 93.88C5.56 91.92 5.7 89.97 5.89 88.04C6.5 88.19 12.56 89.63 13.81 89.92C51 98.18 63.29 106.77 65.37 108.4C64.67 110.09 64.3 111.91 64.3 113.75C64.3 121.44 70.55 127.7 78.23 127.7C79.09 127.7 79.95 127.62 80.79 127.46C81.95 133.12 85.65 137.41 91.3 139.61C92.95 140.24 94.62 140.57 96.27 140.57C97.33 140.57 98.4 140.44 99.44 140.18C100.49 142.83 102.83 146.14 108.09 148.27C109.93 149.01 111.77 149.4 113.56 149.4C115.02 149.4 116.45 149.14 117.81 148.64C120.33 154.77 126.32 158.84 133 158.84C137.43 158.84 141.68 157.04 144.78 153.85C147.43 155.33 153.03 158 158.69 158.01C159.42 158.01 160.1 157.96 160.8 157.88C166.42 157.17 169.03 154.97 170.23 153.26C170.45 152.96 170.64 152.64 170.81 152.31C172.13 152.69 173.59 153 175.27 153.01C178.34 153.01 181.28 151.96 184.26 149.8C187.19 147.69 189.27 144.66 189.57 142.08C189.57 142.05 189.57 142.01 189.58 141.97C190.57 142.17 191.58 142.27 192.59 142.27C195.75 142.27 198.86 141.29 201.83 139.34C207.56 135.59 208.55 130.68 208.46 127.47C209.47 127.68 210.49 127.79 211.51 127.79C214.47 127.79 217.39 126.9 220.16 125.13C223.71 122.86 225.85 119.38 226.18 115.34C226.39 112.59 225.71 109.81 224.27 107.43C233.85 103.3 255.75 95.31 281.54 89.5C281.65 90.96 281.71 92.43 281.71 93.91C281.71 142.69 219.89 182.24 143.64 182.24V182.21Z" fill="#0A0080"/>
<path d="M779.53 28.91C774.32 22.37 766.4 19.11 755.78 19.11C745.16 19.11 737.25 22.38 732.04 28.91C726.82 35.44 724.21 43.16 724.21 52.07C724.21 60.98 726.82 68.88 732.04 75.33C737.25 81.76 745.17 84.98 755.78 84.98C766.39 84.98 774.32 81.76 779.53 75.33C784.75 68.88 787.35 61.14 787.35 52.07C787.35 43 784.75 35.44 779.53 28.91ZM766.61 66.39C764.08 69.74 760.46 71.43 755.72 71.43C750.98 71.43 747.36 69.74 744.81 66.39C742.26 63.04 740.99 58.26 740.99 52.07C740.99 45.88 742.26 41.12 744.81 37.78C747.36 34.44 751 32.77 755.72 32.77C760.44 32.77 764.07 34.44 766.61 37.78C769.14 41.12 770.41 45.89 770.41 52.07C770.41 58.25 769.14 63.04 766.61 66.39Z" fill="#0A0080"/>
<path d="M646.25 23.44C640.96 20.76 634.91 19.41 628.1 19.41C617.63 19.41 610.24 22.14 605.93 27.59C603.22 31.08 601.71 35.54 601.35 40.96H617C617.38 38.56 618.15 36.67 619.31 35.27C620.92 33.38 623.67 32.43 627.54 32.43C631 32.43 633.62 32.91 635.42 33.88C637.2 34.84 638.1 36.6 638.1 39.14C638.1 41.23 636.94 42.75 634.61 43.75C633.31 44.32 631.15 44.79 628.13 45.17L622.58 45.85C616.28 46.65 611.5 47.98 608.26 49.84C602.34 53.25 599.38 58.77 599.38 66.39C599.38 72.26 601.21 76.8 604.9 80C608.57 83.21 613.24 84.55 618.88 84.81C654.25 86.4 653.86 66.17 654.18 61.97V38.7C654.18 31.23 651.53 26.15 646.25 23.45V23.44ZM638.03 58.76C637.92 64.18 636.37 67.91 633.39 69.96C630.4 72.01 627.15 73.03 623.61 73.03C621.37 73.03 619.47 72.4 617.91 71.18C616.35 69.95 615.57 67.94 615.57 65.17C615.57 62.07 616.85 59.78 619.4 58.29C620.91 57.42 623.39 56.68 626.85 56.09L630.54 55.4C632.38 55.05 633.82 54.67 634.88 54.27C635.95 53.89 636.98 53.37 638.01 52.72V58.75L638.03 58.76Z" fill="#0A0080"/>
<path d="M565.59 33.27C569.64 33.27 572.6 34.52 574.53 37.02C575.84 38.86 576.66 40.95 576.98 43.26H594.43C593.48 34.45 590.4 28.31 585.19 24.83C579.97 21.36 573.29 19.62 565.12 19.62C555.51 19.62 547.97 22.57 542.51 28.46C537.05 34.36 534.31 42.61 534.31 53.21C534.31 62.59 536.78 70.25 541.73 76.14C546.68 82.03 554.39 84.98 564.87 84.98C575.35 84.98 583.29 81.45 588.63 74.37C591.98 69.99 593.86 65.34 594.25 60.43H576.86C576.5 63.68 575.49 66.33 573.8 68.37C572.13 70.4 569.3 71.43 565.3 71.43C559.67 71.43 555.83 68.86 553.8 63.71C552.68 60.96 552.11 57.33 552.11 52.8C552.11 48.27 552.68 44.26 553.8 41.37C555.92 35.98 559.85 33.27 565.59 33.27Z" fill="#0A0080"/>
<path d="M529.63 19.62C493.78 19.62 495.91 51.35 495.91 51.35V83.59H512.18V53.36C512.18 48.4 512.81 44.74 514.04 42.35C516.27 38.12 520.64 36 527.14 36C527.63 36 528.27 36.03 529.06 36.07C529.85 36.11 530.75 36.18 531.79 36.3V19.75C531.07 19.7 530.6 19.68 530.4 19.65C530.19 19.63 529.94 19.62 529.63 19.62Z" fill="#0A0080"/>
<path d="M482.87 31.64C480.06 27.48 476.49 24.43 472.19 22.49C467.88 20.57 463.04 19.61 457.67 19.61C448.61 19.61 441.25 22.46 435.57 28.17C429.9 33.89 427.05 42.09 427.05 52.8C427.05 64.23 430.2 72.47 436.49 77.54C442.77 82.6 450.03 85.15 458.25 85.15C468.21 85.15 475.96 82.14 481.49 76.13C484.48 72.97 486.35 69.84 487.14 66.75H469.88C469.2 67.73 468.47 68.56 467.66 69.21C465.36 71.1 462.24 71.68 458.57 71.68C455.1 71.68 452.37 71.16 449.91 69.61C445.85 67.11 443.56 62.89 443.32 56.7H488.33C488.39 51.36 488.22 47.27 487.79 44.43C487.05 39.59 485.39 35.33 482.87 31.66V31.64ZM443.72 46.02C444.3 42 445.75 38.82 448.02 36.46C450.31 34.11 453.52 32.93 457.67 32.93C461.48 32.93 464.68 34.04 467.26 36.27C469.83 38.49 471.26 41.75 471.56 46.02H443.73H443.72Z" fill="#0A0080"/>
<path d="M394.73 19.4C387.18 19.4 380.65 22.71 376.26 28.01C372.09 22.71 365.67 19.4 357.78 19.4C341.89 19.4 331.65 31.07 331.65 46.52V83.58H346.52V46.17C346.52 39.34 351.14 34.62 357.79 34.62C367.59 34.62 368.6 42.75 368.6 46.17V83.58H383.47V46.17C383.47 39.34 388.2 34.62 394.73 34.62C404.53 34.62 405.66 42.75 405.66 46.17V83.58H420.51V46.52C420.51 30.59 410.95 19.4 394.72 19.4H394.73Z" fill="#0A0080"/>
<path d="M702.98 11.49L702.96 28.92C701.15 26 698.79 23.72 695.88 22.09C692.98 20.45 689.65 19.62 685.9 19.62C677.77 19.62 671.3 22.65 666.44 28.68C661.58 34.73 659.15 43.45 659.15 53.99C659.15 63.14 661.62 70.64 666.55 76.48C671.48 82.31 681.15 84.87 689.74 84.87C719.69 84.87 719.34 59.19 719.34 59.19V0.0799838C719.34 0.0799838 702.97 -1.67002 702.97 11.49H702.98ZM699.85 66.53C697.48 69.93 693.99 71.63 689.42 71.63C684.85 71.63 681.44 69.91 679.19 66.5C676.94 63.07 675.82 58.09 675.82 52.39C675.82 47.09 676.92 42.67 679.13 39.1C681.34 35.53 684.8 33.74 689.53 33.74C692.63 33.74 695.35 34.72 697.7 36.68C701.51 39.93 703.43 45.77 703.43 53.32C703.43 58.72 702.23 63.13 699.85 66.53Z" fill="#0A0080"/>
<path d="M366.02 108.45C352.62 107.82 345.86 111.01 341.45 114.38C335.36 119.03 331.65 125.91 331.65 136.9V193.41H339.53C341.64 193.41 343.75 192.68 345.3 191.25C347.04 189.65 347.91 187.69 347.91 185.39V164.27C349.83 167.58 352.36 170.01 355.56 171.59C358.59 173 362.09 173.71 366.07 173.71C373.56 173.71 379.71 170.73 384.48 164.74C389.26 158.59 391.65 150.59 391.65 140.68C391.65 130.77 389.39 123.71 383.97 117.11C379.59 111.77 372.93 108.76 366.03 108.45H366.02ZM371.57 154.83C369.18 158.14 365.91 159.79 361.77 159.79C357.31 159.79 353.88 158.15 351.49 154.83C349.1 151.84 347.9 147.38 347.9 141.38C347.9 134.95 349.01 130.22 351.24 127.23C353.64 123.94 356.99 122.27 361.29 122.27C365.59 122.27 369.18 123.93 371.57 127.23C373.97 130.54 375.16 135.25 375.16 141.38C375.16 147.06 373.97 151.52 371.57 154.83Z" fill="#0A0080"/>
<path d="M505.74 114.28C500.21 110.09 494.56 107.9 484.85 108.16C474.99 108.43 467.82 111.19 463.36 117.23C458.9 123.28 456.68 131.18 456.68 140.91C456.68 149.24 458.36 155.95 461.72 161.08C465.09 166.18 469.12 169.68 473.82 171.55C478.5 173.44 483.24 173.83 488.02 172.74C492.79 171.63 496.59 168.9 499.41 164.5V168.49C499.09 173.52 497.88 177.29 495.78 179.81C493.65 182.31 491.31 183.85 488.72 184.4C486.16 184.94 483.56 184.64 480.99 183.45C478.4 182.28 476.49 180.58 475.24 178.39H458.1C462.54 191.73 470.51 197.62 484.87 198.66C508.03 200.33 515.41 180.72 515.39 170.14V136.89C515.39 125.9 511.81 118.86 505.76 114.26L505.74 114.28ZM498.93 146.94C498.3 150.62 497.29 153.34 495.87 155.06C492.9 159.14 488.27 160.59 482.03 159.43C475.76 158.24 472.63 152.23 472.63 141.4C472.63 136.37 473.56 131.89 475.45 127.95C477.33 124.04 480.92 122.06 486.24 122.06C490.15 122.06 493.13 123.48 495.16 126.3C497.2 129.13 498.5 132.35 499.04 135.97C499.59 139.58 499.54 143.24 498.92 146.93L498.93 146.94Z" fill="#0A0080"/>
<path d="M442.76 112.63C437.47 109.96 431.42 108.6 424.61 108.6C414.14 108.6 406.76 111.33 402.46 116.79C399.76 120.27 398.24 124.73 397.88 130.15H413.53C413.91 127.76 414.68 125.86 415.83 124.47C417.44 122.58 420.19 121.62 424.06 121.62C427.53 121.62 430.15 122.1 431.94 123.07C433.72 124.03 434.61 125.79 434.61 128.33C434.61 130.41 433.45 131.95 431.12 132.93C429.82 133.5 427.66 133.97 424.64 134.35L419.1 135.02C412.8 135.82 408.01 137.15 404.79 139.01C398.86 142.42 395.91 147.93 395.91 155.55C395.91 161.42 397.74 165.96 401.43 169.16C405.1 172.37 409.77 173.71 415.42 173.97C450.78 175.55 450.38 155.33 450.7 151.13V127.86C450.7 120.4 448.07 115.32 442.78 112.62L442.76 112.63ZM434.54 147.94C434.44 153.37 432.88 157.09 429.91 159.14C426.93 161.19 423.67 162.21 420.13 162.21C417.89 162.21 416 161.58 414.43 160.36C412.87 159.13 412.09 157.13 412.09 154.36C412.09 151.26 413.37 148.97 415.92 147.49C417.44 146.62 419.91 145.88 423.37 145.29L427.07 144.61C428.91 144.26 430.36 143.89 431.4 143.49C432.47 143.1 433.51 142.58 434.54 141.93V147.96V147.94Z" fill="#0A0080"/>
<path d="M576.88 117.76C571.66 111.22 563.74 107.95 553.12 107.95C542.5 107.95 534.6 111.21 529.39 117.76C524.17 124.29 521.56 132 521.56 140.91C521.56 149.82 524.17 157.71 529.39 164.16C534.6 170.58 542.52 173.8 553.12 173.8C563.72 173.8 571.65 170.58 576.88 164.16C582.09 157.71 584.69 149.97 584.69 140.91C584.69 131.85 582.09 124.29 576.88 117.76ZM563.95 155.22C561.42 158.58 557.8 160.27 553.08 160.27C548.36 160.27 544.72 158.58 542.17 155.22C539.61 151.87 538.34 147.1 538.34 140.91C538.34 134.72 539.61 129.96 542.17 126.62C544.71 123.28 548.35 121.61 553.08 121.61C557.81 121.61 561.43 123.28 563.95 126.62C566.48 129.96 567.74 134.72 567.74 140.91C567.74 147.1 566.48 151.87 563.95 155.22Z" fill="#0A0080"/>
</svg>
