<svg width="2689" height="936" viewBox="0 0 2689 936" fill="none" xmlns="http://www.w3.org/2000/svg">
<path d="M339.455 21.4914C439.169 -6.63297 545.412 -0.711924 641.385 38.3176C737.359 77.3471 817.589 147.259 869.39 237L671.121 351.494L448.919 476.188L555.156 250.444C506.343 230.593 452.307 227.582 401.592 241.886C350.876 256.19 306.375 286.994 275.122 329.427C243.869 371.86 227.647 423.502 229.023 476.188C230.399 528.874 249.293 579.598 282.717 620.342C316.142 661.086 362.191 689.523 413.584 701.16C464.977 712.797 518.782 706.969 566.492 684.597C614.202 662.225 653.096 624.585 677.025 577.629L881 681.616C833.952 773.94 757.481 847.945 663.674 891.932C569.868 935.919 464.08 947.378 363.034 924.498C261.988 901.618 171.448 845.704 105.73 765.596C40.0119 685.488 2.8638 585.755 0.158904 482.166C-2.54595 378.577 29.3466 277.041 90.7946 193.611C152.243 110.18 239.74 49.6159 339.455 21.4914ZM2125.51 738C2167.76 738 2202.01 772.25 2202.01 814.5C2202.01 856.75 2167.76 891 2125.51 891C2111.3 891 2098 887.127 2086.6 880.38V934H2049C2049 934 2049.01 827.719 2049.01 814.5C2049.01 772.25 2083.26 738 2125.51 738ZM1749.42 891.418H1712V854H1749.42V891.418ZM2247.34 891.174H2209.92V738.316H2247.34V891.174ZM1804.24 741.183C1820.6 736.57 1838.03 737.542 1853.77 743.943C1869.51 750.344 1882.68 761.81 1891.17 776.529L1858.65 795.308C1854.33 787.822 1847.63 781.989 1839.62 778.734C1831.62 775.478 1822.75 774.984 1814.43 777.33C1806.11 779.676 1798.81 784.728 1793.69 791.688C1788.56 798.647 1785.9 807.117 1786.12 815.758C1786.35 824.399 1789.45 832.719 1794.93 839.402C1800.42 846.084 1807.97 850.748 1816.4 852.656C1824.83 854.565 1833.66 853.609 1841.49 849.94C1849.31 846.27 1855.69 840.097 1859.62 832.396L1893.08 849.451C1885.36 864.593 1872.82 876.731 1857.43 883.946C1842.04 891.16 1824.69 893.039 1808.11 889.286C1791.53 885.534 1776.68 876.363 1765.9 863.225C1755.12 850.086 1749.02 833.728 1748.58 816.739C1748.14 799.749 1753.37 783.096 1763.45 769.412C1773.53 755.729 1787.88 745.796 1804.24 741.183ZM2300.82 738.132H2360.79V772.583H2300.82V814.815C2300.83 821.798 2302.72 828.648 2306.3 834.647C2309.88 840.645 2315 845.569 2321.14 848.902C2327.27 852.234 2334.19 853.853 2341.17 853.587C2348.15 853.321 2354.93 851.179 2360.79 847.388L2381.18 878.929C2369.65 886.383 2356.32 890.593 2342.6 891.116C2328.88 891.64 2315.28 888.458 2303.21 881.906C2291.15 875.353 2281.07 865.671 2274.04 853.877C2267.01 842.084 2263.29 828.615 2263.26 814.885V696.118L2300.82 677.011V738.132ZM2566.33 814.815C2566.34 821.798 2568.23 828.648 2571.81 834.647C2575.38 840.645 2580.51 845.569 2586.65 848.902C2592.78 852.234 2599.7 853.853 2606.68 853.587C2613.66 853.321 2620.44 851.179 2626.3 847.388L2646.69 878.929C2635.16 886.383 2621.83 890.593 2608.11 891.116C2594.39 891.64 2580.79 888.458 2568.72 881.906C2556.66 875.353 2546.58 865.671 2539.55 853.877C2532.52 842.084 2528.8 828.615 2528.77 814.885V696.118L2566.33 677.011V814.815ZM1964.5 738C2006.75 738 2041 772.25 2041 814.5C2041 827.718 2041 891 2041 891H2003.41V880.38C1992.01 887.127 1978.71 891 1964.5 891C1922.25 891 1888 856.75 1888 814.5C1888 772.25 1922.25 738 1964.5 738ZM2444.5 738C2486.75 738 2521 772.25 2521 814.5C2521 827.718 2521 891 2521 891H2483.41V880.38C2472.01 887.127 2458.71 891 2444.5 891C2402.25 891 2368 856.75 2368 814.5C2368 772.25 2402.25 738 2444.5 738ZM1964.5 775.591C1943.01 775.591 1925.59 793.012 1925.59 814.5C1925.59 835.989 1943.01 853.408 1964.5 853.408C1985.99 853.408 2003.41 835.989 2003.41 814.5C2003.41 793.012 1985.99 775.591 1964.5 775.591ZM2125.51 775.591C2104.02 775.591 2086.6 793.012 2086.6 814.5C2086.6 835.989 2104.02 853.408 2125.51 853.408C2147 853.408 2164.42 835.989 2164.42 814.5C2164.42 793.012 2147 775.591 2125.51 775.591ZM2444.5 775.591C2423.01 775.591 2405.59 793.012 2405.59 814.5C2405.59 835.989 2423.01 853.408 2444.5 853.408C2465.99 853.408 2483.41 835.989 2483.41 814.5C2483.41 793.012 2465.99 775.591 2444.5 775.591ZM2247.34 732.343H2209.92V694.925H2247.34V732.343ZM2242.5 193.5V446.5C2242.5 552.539 2156.54 638.5 2050.5 638.5C1944.46 638.5 1858.5 552.539 1858.5 446.5C1858.5 340.462 1944.46 254.5 2050.5 254.5C2086.16 254.5 2119.54 264.22 2148.15 281.154V141.5L2242.5 193.5ZM885.365 277.279C915.674 260.817 949.858 252.824 984.324 254.14C1018.79 255.456 1052.27 266.031 1081.23 284.755L1030.01 363.99C1015.28 354.467 998.255 349.087 980.725 348.418C963.196 347.749 945.809 351.814 930.393 360.187C914.978 368.559 902.102 380.93 893.12 395.998C884.138 411.066 879.38 428.276 879.347 445.819V638L785 590V445.643C785.064 411.152 794.418 377.315 812.079 347.689C829.74 318.062 855.056 293.74 885.365 277.279ZM2455 254C2561.04 254 2647 339.962 2647 446C2647 552.039 2561.04 638 2455 638C2348.96 638 2263 552.039 2263 446C2263 339.962 2348.96 254 2455 254ZM1128.54 291.851C1166.82 263.428 1214.3 250.262 1261.75 254.917C1309.2 259.572 1353.21 281.714 1385.24 317.033C1417.26 352.353 1435 398.324 1435 446H1244L1325.66 394C1322.64 389.206 1319.2 384.655 1315.34 380.407C1299.06 362.444 1276.67 351.182 1252.53 348.815C1228.4 346.447 1204.25 353.143 1184.78 367.599C1165.32 382.055 1151.92 403.237 1147.21 427.023C1142.5 450.809 1146.8 475.498 1159.29 496.284C1171.78 517.071 1191.55 532.469 1214.76 539.481C1237.97 546.493 1262.97 544.618 1284.87 534.221C1306.78 523.824 1324.03 505.648 1333.28 483.232L1420.5 519.202C1402.32 563.277 1368.4 599.013 1325.32 619.455C1282.25 639.898 1233.12 643.584 1187.48 629.797C1141.84 616.01 1102.96 585.736 1078.41 544.866C1053.86 503.997 1045.4 455.455 1054.66 408.688C1063.93 361.921 1090.26 320.274 1128.54 291.851ZM1532.54 291.851C1570.82 263.428 1618.3 250.262 1665.75 254.917C1713.2 259.572 1757.21 281.714 1789.24 317.033C1821.26 352.353 1839 398.324 1839 446H1648L1729.66 394C1726.64 389.206 1723.2 384.655 1719.34 380.407C1703.06 362.444 1680.67 351.182 1656.53 348.815C1632.4 346.447 1608.25 353.143 1588.78 367.599C1569.32 382.055 1555.92 403.237 1551.21 427.023C1546.5 450.809 1550.8 475.498 1563.29 496.284C1575.78 517.071 1595.55 532.469 1618.76 539.481C1641.97 546.493 1666.97 544.618 1688.87 534.221C1710.78 523.824 1728.03 505.648 1737.28 483.232L1824.5 519.202C1806.32 563.277 1772.4 599.013 1729.32 619.455C1686.25 639.898 1637.12 643.584 1591.48 629.797C1545.84 616.01 1506.96 585.736 1482.41 544.866C1457.86 503.997 1449.4 455.455 1458.66 408.688C1467.93 361.921 1494.26 320.274 1532.54 291.851ZM2050.5 348.848C1996.57 348.848 1952.85 392.568 1952.85 446.5C1952.85 500.432 1996.57 544.153 2050.5 544.153C2104.43 544.152 2148.15 500.432 2148.15 446.5C2148.15 392.568 2104.43 348.848 2050.5 348.848ZM2455 348.348C2401.07 348.348 2357.35 392.068 2357.35 446C2357.35 499.932 2401.07 543.653 2455 543.653C2508.93 543.652 2552.65 499.932 2552.65 446C2552.65 392.068 2508.93 348.348 2455 348.348Z" fill="url(#paint0_linear_60_35)"/>
<defs>
<linearGradient id="paint0_linear_60_35" x1="2695.07" y1="-44" x2="2291.07" y2="1386.5" gradientUnits="userSpaceOnUse">
<stop stop-color="#F709FC"/>
<stop offset="0.460021" stop-color="#7B30CB"/>
<stop offset="1" stop-color="#0691F6"/>
</linearGradient>
</defs>
</svg>
